<?xml version="1.0" encoding="UTF-8"?>
<svg width="116px" height="28px" viewBox="0 0 116 28" version="1.1" xmlns="http://www.w3.org/2000/svg" xmlns:xlink="http://www.w3.org/1999/xlink">
    <!-- Generator: Sketch 47 (45396) - http://www.bohemiancoding.com/sketch -->
    <title>相关案例</title>
    <desc>Created with Sketch.</desc>
    <defs></defs>
    <g id="平台资源-广告资源" stroke="none" stroke-width="1" fill="none" fill-rule="evenodd">
        <g transform="translate(-691.000000, -1648.000000)" id="相关案例" fill="#1D1B28">
            <path d="M716.88,1650.65 L716.88,1675.85 L715.86,1675.85 L715.86,1673.75 L704.64,1673.75 L704.64,1675.88 L703.62,1675.88 L703.62,1650.65 L716.88,1650.65 Z M704.64,1672.76 L715.86,1672.76 L715.86,1666.19 L704.64,1666.19 L704.64,1672.76 Z M704.64,1665.2 L715.86,1665.2 L715.86,1658.87 L704.64,1658.87 L704.64,1665.2 Z M704.64,1657.88 L715.86,1657.88 L715.86,1651.64 L704.64,1651.64 L704.64,1657.88 Z M697.5,1658.96 C698.58,1660.25 699.84,1661.99 701.34,1664.18 L701.91,1663.34 C700.44,1661.3 698.97,1659.47 697.5,1657.85 L697.5,1655.9 L701.79,1655.9 L701.79,1654.91 L697.5,1654.91 L697.5,1648.67 L696.51,1648.67 L696.51,1654.91 L691.86,1654.91 L691.86,1655.9 L696.45,1655.9 C695.52,1660.1 693.84,1663.85 691.44,1667.15 L691.83,1668.14 C693.87,1665.26 695.43,1661.99 696.51,1658.33 L696.51,1675.82 L697.5,1675.82 L697.5,1658.96 Z M728.7,1648.73 C730.02,1650.38 731.25,1652.18 732.33,1654.13 L731.43,1654.58 C730.26,1652.57 729.03,1650.77 727.77,1649.21 L728.7,1648.73 Z M741.18,1648.43 L742.17,1648.7 C741.36,1651.16 740.31,1653.35 739.05,1655.27 L745.98,1655.27 L745.98,1656.29 L735.51,1656.29 L735.51,1658.48 C735.51,1660.07 735.36,1661.57 735.09,1662.95 L747.72,1662.95 L747.72,1663.97 L736.14,1663.97 C737.67,1668.68 741.75,1672.31 748.41,1674.86 L747.84,1675.76 C740.85,1672.94 736.59,1669.01 735.09,1663.97 L734.88,1663.97 C734.34,1666.13 733.5,1667.99 732.33,1669.58 C730.32,1672.16 726.99,1674.17 722.34,1675.67 L721.77,1674.8 C726.33,1673.36 729.66,1671.35 731.7,1668.74 C732.66,1667.36 733.35,1665.77 733.83,1663.97 L722.28,1663.97 L722.28,1662.95 L734.04,1662.95 C734.31,1661.57 734.46,1660.07 734.49,1658.48 L734.49,1656.29 L723.99,1656.29 L723.99,1655.27 L737.91,1655.27 C739.14,1653.41 740.22,1651.13 741.18,1648.43 Z M763.14,1653.32 L764.1,1653.62 C763.41,1654.58 762.78,1655.48 762.21,1656.29 L776.85,1656.29 L776.85,1657.19 L771.63,1657.19 C770.37,1658.96 768.96,1660.34 767.4,1661.36 C770.28,1662.14 773.28,1663.04 776.34,1664.12 L775.74,1664.93 C772.59,1663.79 769.44,1662.83 766.29,1661.99 C763.14,1663.55 758.94,1664.33 753.66,1664.39 L753.09,1663.55 C758.01,1663.55 761.97,1662.89 764.97,1661.63 C762.69,1661.03 760.38,1660.49 758.07,1660.07 C758.85,1659.11 759.63,1658.15 760.38,1657.19 L753.21,1657.19 L753.21,1656.29 L761.04,1656.29 C761.76,1655.3 762.48,1654.31 763.14,1653.32 Z M766.17,1661.03 C768.03,1659.95 769.5,1658.66 770.55,1657.19 L761.55,1657.19 C760.83,1658.09 760.2,1658.87 759.6,1659.56 C761.73,1659.95 763.92,1660.43 766.17,1661.03 Z M776.79,1651.34 L776.79,1655.09 L775.8,1655.09 L775.8,1652.27 L754.2,1652.27 L754.2,1655.09 L753.21,1655.09 L753.21,1651.34 L764.82,1651.34 C764.4,1650.38 763.95,1649.54 763.44,1648.76 L764.55,1648.58 C765,1649.36 765.42,1650.29 765.84,1651.34 L776.79,1651.34 Z M752.28,1666.82 L764.55,1666.82 L764.55,1664.15 L765.57,1664.15 L765.57,1666.82 L777.75,1666.82 L777.75,1667.78 L766.83,1667.78 C769.08,1670.33 772.8,1672.34 777.99,1673.78 L777.57,1674.65 C771.93,1672.91 768.03,1670.63 765.87,1667.78 L765.57,1667.78 L765.57,1675.85 L764.55,1675.85 L764.55,1667.78 L764.25,1667.78 C762.39,1670.54 758.52,1672.91 752.7,1674.89 L752.13,1673.96 C757.77,1672.19 761.52,1670.12 763.32,1667.78 L752.28,1667.78 L752.28,1666.82 Z M789.48,1650.65 L799.17,1650.65 L799.17,1651.64 L793.32,1651.64 C793.14,1653.53 792.87,1655.3 792.51,1656.92 L798.39,1656.92 L798.39,1657.85 C797.1,1666.22 794.1,1672.16 789.36,1675.67 L788.82,1674.77 C791.4,1672.85 793.44,1670.21 794.94,1666.79 C793.41,1665.35 791.85,1664.18 790.29,1663.28 C789.66,1664.45 788.97,1665.53 788.22,1666.49 L787.74,1665.53 C790.32,1662.17 791.85,1657.55 792.33,1651.64 L789.48,1651.64 L789.48,1650.65 Z M790.68,1662.44 C792.39,1663.4 793.95,1664.54 795.33,1665.83 C796.23,1663.49 796.92,1660.85 797.4,1657.91 L792.27,1657.91 C791.85,1659.56 791.31,1661.06 790.68,1662.44 Z M804.75,1675.64 L801.45,1675.64 L801.24,1674.65 C802.35,1674.71 803.4,1674.74 804.39,1674.74 C805.44,1674.74 805.98,1674.17 805.98,1673.03 L805.98,1648.73 L807,1648.73 L807,1673.27 C807,1674.83 806.25,1675.64 804.75,1675.64 Z M784.68,1657.88 C783.72,1659.5 782.7,1661.03 781.56,1662.44 L781.23,1661.36 C784.08,1657.55 786.12,1653.29 787.35,1648.61 L788.31,1649.06 C787.59,1651.52 786.72,1653.83 785.7,1655.93 L785.7,1675.94 L784.68,1675.94 L784.68,1657.88 Z M800.97,1651.55 L801.96,1651.55 L801.96,1670.27 L800.97,1670.27 L800.97,1651.55 Z"></path>
        </g>
    </g>
</svg>