<?xml version="1.0" encoding="UTF-8"?>
<svg width="116px" height="28px" viewBox="0 0 116 28" version="1.1" xmlns="http://www.w3.org/2000/svg" xmlns:xlink="http://www.w3.org/1999/xlink">
    <!-- Generator: Sketch 47 (45396) - http://www.bohemiancoding.com/sketch -->
    <title>优秀案例</title>
    <desc>Created with Sketch.</desc>
    <defs></defs>
    <g id="首页" stroke="none" stroke-width="1" fill="none" fill-rule="evenodd">
        <g transform="translate(-691.000000, -727.000000)" id="优秀案例" fill="#FFFFFF">
            <path d="M695.76,736.25 C694.5,738.2 693.06,740 691.47,741.65 L691.17,740.63 C694.68,736.79 697.17,732.53 698.64,727.85 L699.57,728.24 C698.79,730.49 697.86,732.59 696.78,734.54 L696.78,754.88 L695.76,754.88 L695.76,736.25 Z M699.66,735.35 L706.2,735.35 C706.26,734.57 706.29,733.79 706.29,733.01 L706.29,727.73 L707.28,727.73 L707.28,733.01 L707.19,735.35 L717.69,735.35 L717.69,736.37 L711.06,736.37 L711.06,752.21 C711.06,752.99 711.45,753.41 712.26,753.41 L715.29,753.41 C715.74,753.41 716.1,753.23 716.34,752.9 C716.7,752.27 716.91,750.44 717,747.41 L717.96,747.71 C717.81,750.8 717.54,752.75 717.12,753.56 C716.76,754.1 716.25,754.37 715.56,754.4 L711.96,754.4 C710.7,754.4 710.07,753.71 710.07,752.39 L710.07,736.37 L707.13,736.37 C706.53,744.59 703.98,750.71 699.48,754.73 L698.73,754.1 C703.08,750.23 705.54,744.32 706.14,736.37 L699.66,736.37 L699.66,735.35 Z M711.33,728.54 C713.19,729.86 714.75,731.18 715.98,732.53 L715.29,733.22 C714.12,731.93 712.56,730.58 710.61,729.2 L711.33,728.54 Z M737.07,734.93 C739.05,737.87 742.59,740.21 747.69,742.01 L748.14,741.11 C743.49,739.64 740.16,737.57 738.12,734.93 L747.27,734.93 L747.27,733.94 L735.66,733.94 L735.66,730.25 C739.02,729.95 741.99,729.47 744.54,728.84 L744.06,727.94 C739.14,729.14 732.66,729.74 724.68,729.74 L725.01,730.67 C728.49,730.67 731.7,730.55 734.64,730.34 L734.64,733.94 L722.43,733.94 L722.43,734.93 L732.09,734.93 C730.47,737.3 727.08,739.37 721.95,741.17 L722.55,742.1 C727.86,740.12 731.4,737.75 733.14,734.93 L734.64,734.93 L734.64,740.69 L735.66,740.69 L735.66,734.93 L737.07,734.93 Z M731.13,743.54 C730.89,748.22 727.98,751.61 722.37,753.77 L722.94,754.64 C728.76,752.3 731.82,748.61 732.12,743.54 L740.07,743.54 L738.69,747.56 L744.54,747.56 C744.42,750.74 743.91,752.66 742.95,753.32 C742.59,753.59 741.99,753.74 741.18,753.74 C740.07,753.74 738.78,753.71 737.34,753.68 L737.64,754.7 C739.2,754.67 740.55,754.64 741.66,754.64 C742.56,754.58 743.25,754.37 743.76,753.95 C744.87,753.11 745.47,750.83 745.56,747.05 L745.56,746.57 L739.98,746.57 L741.21,743.06 L741.21,742.55 L726.51,742.55 L726.51,743.54 L731.13,743.54 Z M763.14,732.32 L764.1,732.62 C763.41,733.58 762.78,734.48 762.21,735.29 L776.85,735.29 L776.85,736.19 L771.63,736.19 C770.37,737.96 768.96,739.34 767.4,740.36 C770.28,741.14 773.28,742.04 776.34,743.12 L775.74,743.93 C772.59,742.79 769.44,741.83 766.29,740.99 C763.14,742.55 758.94,743.33 753.66,743.39 L753.09,742.55 C758.01,742.55 761.97,741.89 764.97,740.63 C762.69,740.03 760.38,739.49 758.07,739.07 C758.85,738.11 759.63,737.15 760.38,736.19 L753.21,736.19 L753.21,735.29 L761.04,735.29 C761.76,734.3 762.48,733.31 763.14,732.32 Z M766.17,740.03 C768.03,738.95 769.5,737.66 770.55,736.19 L761.55,736.19 C760.83,737.09 760.2,737.87 759.6,738.56 C761.73,738.95 763.92,739.43 766.17,740.03 Z M776.79,730.34 L776.79,734.09 L775.8,734.09 L775.8,731.27 L754.2,731.27 L754.2,734.09 L753.21,734.09 L753.21,730.34 L764.82,730.34 C764.4,729.38 763.95,728.54 763.44,727.76 L764.55,727.58 C765,728.36 765.42,729.29 765.84,730.34 L776.79,730.34 Z M752.28,745.82 L764.55,745.82 L764.55,743.15 L765.57,743.15 L765.57,745.82 L777.75,745.82 L777.75,746.78 L766.83,746.78 C769.08,749.33 772.8,751.34 777.99,752.78 L777.57,753.65 C771.93,751.91 768.03,749.63 765.87,746.78 L765.57,746.78 L765.57,754.85 L764.55,754.85 L764.55,746.78 L764.25,746.78 C762.39,749.54 758.52,751.91 752.7,753.89 L752.13,752.96 C757.77,751.19 761.52,749.12 763.32,746.78 L752.28,746.78 L752.28,745.82 Z M789.48,729.65 L799.17,729.65 L799.17,730.64 L793.32,730.64 C793.14,732.53 792.87,734.3 792.51,735.92 L798.39,735.92 L798.39,736.85 C797.1,745.22 794.1,751.16 789.36,754.67 L788.82,753.77 C791.4,751.85 793.44,749.21 794.94,745.79 C793.41,744.35 791.85,743.18 790.29,742.28 C789.66,743.45 788.97,744.53 788.22,745.49 L787.74,744.53 C790.32,741.17 791.85,736.55 792.33,730.64 L789.48,730.64 L789.48,729.65 Z M790.68,741.44 C792.39,742.4 793.95,743.54 795.33,744.83 C796.23,742.49 796.92,739.85 797.4,736.91 L792.27,736.91 C791.85,738.56 791.31,740.06 790.68,741.44 Z M804.75,754.64 L801.45,754.64 L801.24,753.65 C802.35,753.71 803.4,753.74 804.39,753.74 C805.44,753.74 805.98,753.17 805.98,752.03 L805.98,727.73 L807,727.73 L807,752.27 C807,753.83 806.25,754.64 804.75,754.64 Z M784.68,736.88 C783.72,738.5 782.7,740.03 781.56,741.44 L781.23,740.36 C784.08,736.55 786.12,732.29 787.35,727.61 L788.31,728.06 C787.59,730.52 786.72,732.83 785.7,734.93 L785.7,754.94 L784.68,754.94 L784.68,736.88 Z M800.97,730.55 L801.96,730.55 L801.96,749.27 L800.97,749.27 L800.97,730.55 Z"></path>
        </g>
    </g>
</svg>