<?xml version="1.0" encoding="UTF-8"?>
<svg width="118px" height="28px" viewBox="0 0 118 28" version="1.1" xmlns="http://www.w3.org/2000/svg" xmlns:xlink="http://www.w3.org/1999/xlink">
    <!-- Generator: Sketch 47 (45396) - http://www.bohemiancoding.com/sketch -->
    <title>合作品牌</title>
    <desc>Created with Sketch.</desc>
    <defs></defs>
    <g id="首页" stroke="none" stroke-width="1" fill="none" fill-rule="evenodd">
        <g transform="translate(-691.000000, -1702.000000)" id="合作品牌" fill="#1D1B28">
            <path d="M704.64,1702.67 L705.36,1702.67 C709.26,1707.32 713.73,1710.98 718.83,1713.65 L718.29,1714.58 C713.1,1711.79 708.66,1708.13 705,1703.6 C701.61,1707.86 697.14,1711.52 691.59,1714.64 L691.08,1713.71 C696.51,1710.74 701.04,1707.05 704.64,1702.67 Z M714,1718.33 L714,1729.82 L712.98,1729.82 L712.98,1727.69 L697.02,1727.69 L697.02,1729.82 L696,1729.82 L696,1718.33 L714,1718.33 Z M697.02,1726.67 L712.98,1726.67 L712.98,1719.35 L697.02,1719.35 L697.02,1726.67 Z M697.35,1712.54 L712.65,1712.54 L712.65,1713.53 L697.35,1713.53 L697.35,1712.54 Z M734.01,1708.28 C732.63,1711.22 730.95,1713.83 729.03,1716.11 L728.31,1715.3 C731.28,1711.79 733.56,1707.53 735.12,1702.55 L736.11,1702.79 C735.63,1704.38 735.06,1705.88 734.46,1707.29 L748.41,1707.29 L748.41,1708.28 L737.55,1708.28 L737.55,1714.34 L746.91,1714.34 L746.91,1715.36 L737.55,1715.36 L737.55,1721.51 L747.27,1721.51 L747.27,1722.5 L737.55,1722.5 L737.55,1729.85 L736.53,1729.85 L736.53,1708.28 L734.01,1708.28 Z M725.52,1711.46 C724.35,1713.14 723.06,1714.73 721.62,1716.17 L721.29,1715.12 C724.77,1711.4 727.26,1707.23 728.76,1702.67 L729.69,1703.12 C728.85,1705.55 727.8,1707.8 726.54,1709.87 L726.54,1729.85 L725.52,1729.85 L725.52,1711.46 Z M757.08,1704.26 L772.83,1704.26 L772.83,1713.05 L757.08,1713.05 L757.08,1704.26 Z M771.78,1712.03 L771.78,1705.28 L758.13,1705.28 L758.13,1712.03 L771.78,1712.03 Z M762.87,1717.19 L762.87,1729.4 L761.85,1729.4 L761.85,1727.72 L754.23,1727.72 L754.23,1729.4 L753.21,1729.4 L753.21,1717.19 L762.87,1717.19 Z M754.23,1726.73 L761.85,1726.73 L761.85,1718.18 L754.23,1718.18 L754.23,1726.73 Z M776.76,1717.19 L776.76,1729.4 L775.74,1729.4 L775.74,1727.72 L767.85,1727.72 L767.85,1729.4 L766.83,1729.4 L766.83,1717.19 L776.76,1717.19 Z M767.85,1726.73 L775.74,1726.73 L775.74,1718.18 L767.85,1718.18 L767.85,1726.73 Z M789.06,1702.94 L789.06,1711.34 L784.62,1711.34 L784.62,1703.57 L783.63,1703.57 L783.63,1714.34 C783.6,1721.24 782.73,1726.28 781.02,1729.4 L781.8,1730.06 C783.24,1727.45 784.14,1723.64 784.47,1718.66 L789.36,1718.66 L789.36,1729.43 L790.38,1729.43 L790.38,1717.67 L784.53,1717.67 C784.59,1716.62 784.62,1715.51 784.62,1714.34 L784.62,1712.33 L792.03,1712.33 L792.03,1711.34 L790.05,1711.34 L790.05,1702.94 L789.06,1702.94 Z M793.98,1705.58 L798.54,1705.58 C799.08,1704.5 799.47,1703.42 799.71,1702.28 L800.73,1702.43 C800.46,1703.57 800.07,1704.62 799.59,1705.58 L806.7,1705.58 L806.7,1717.43 L799.92,1717.43 C799.77,1717.79 799.62,1718.15 799.44,1718.48 C798.54,1720.04 797.04,1721.27 794.94,1722.17 L794.4,1721.39 C796.38,1720.55 797.79,1719.38 798.69,1717.82 C798.75,1717.67 798.81,1717.55 798.87,1717.43 L793.98,1717.43 L793.98,1705.58 Z M805.71,1716.5 L805.71,1711.97 L800.85,1711.97 C800.79,1713.71 800.58,1715.24 800.22,1716.5 L805.71,1716.5 Z M799.2,1716.5 C799.62,1715.18 799.83,1713.65 799.89,1711.97 L794.94,1711.97 L794.94,1716.5 L799.2,1716.5 Z M794.94,1711.01 L799.89,1711.01 L799.89,1706.54 L794.94,1706.54 L794.94,1711.01 Z M800.85,1706.54 L800.85,1711.01 L805.71,1711.01 L805.71,1706.54 L800.85,1706.54 Z M792.33,1722.71 L801.9,1722.71 L801.9,1719.08 L802.92,1719.08 L802.92,1722.71 L808.5,1722.71 L808.5,1723.7 L802.92,1723.7 L802.92,1729.76 L801.9,1729.76 L801.9,1723.7 L792.33,1723.7 L792.33,1722.71 Z"></path>
        </g>
    </g>
</svg>