<?xml version="1.0" encoding="UTF-8"?>
<svg width="146px" height="30px" viewBox="0 0 146 30" version="1.1" xmlns="http://www.w3.org/2000/svg" xmlns:xlink="http://www.w3.org/1999/xlink">
    <!-- Generator: Sketch 47 (45396) - http://www.bohemiancoding.com/sketch -->
    <title>logo</title>
    <desc>Created with Sketch.</desc>
    <defs></defs>
    <g id="首页" stroke="none" stroke-width="1" fill="none" fill-rule="evenodd">
        <g transform="translate(-210.000000, -25.000000)" id="header" fill="#E63C3C">
            <g transform="translate(210.000000, 0.000000)">
                <g id="logo" transform="translate(0.000000, 25.000000)">
                    <g id="Page-1">
                        <polygon id="Fill-1" points="0 -0.000157895007 0 23.7306721 7.88624704 23.7306721 7.88624704 21.6476422 2.07422565 21.6476422 2.07422565 2.07497723 21.6714685 2.07497723 21.6714685 7.44143376 23.7611086 7.45248641 23.7611086 -0.000157895007"></polygon>
                        <polygon id="Fill-2" points="21.6713499 26.0111892 21.6713499 28.0436926 23.7574328 29.6471164 23.7574328 26.0111892"></polygon>
                        <path d="M15.3087576,15.7884349 L21.8883373,15.7884349 L18.6054642,13.7859314 L15.3087576,15.7884349 Z M22.5527378,17.23949 L19.3319175,17.23949 L19.3319175,18.9865982 L23.7234421,18.9865982 L23.7234421,20.4380481 L19.3319175,20.4380481 L19.3319175,22.1310773 L24.2514843,22.1310773 L24.2514843,23.5825271 L12.9724871,23.5825271 L12.9724871,22.1310773 L17.8786157,22.1310773 L17.8786157,20.4380481 L13.5005293,20.4380481 L13.5005293,18.9865982 L17.8786157,18.9865982 L17.8786157,17.23949 L14.6577954,17.23949 L14.6475191,16.195804 L13.3036992,17.0113317 L12.5503695,15.774619 L17.8786157,12.5365872 L17.8786157,11.5284276 L19.3319175,11.5284276 L19.3319175,12.5365872 L24.6601637,15.774619 L23.906834,17.0113317 L22.5562949,16.1914619 L22.5527378,17.23949 Z" id="Fill-3"></path>
                        <path d="M27.7549811,17.8039646 L32.0876148,17.8039646 L31.5378343,16.1373828 L27.7549811,16.1373828 L27.7549811,17.8039646 Z M27.7549811,14.6863277 L34.9772229,14.6863277 L34.9772229,13.1811936 L27.7549811,13.1811936 L27.7549811,14.6863277 Z M37.1395874,23.5687113 L34.012044,23.5687113 L32.5753424,19.2554145 L27.7549811,19.2554145 L27.7549811,22.1180509 L31.212946,22.1180509 L31.2240128,23.5687113 L26.3020745,23.5687113 L26.3020745,11.7297437 L36.4301295,11.7297437 L36.4301295,16.1373828 L33.0563509,16.1373828 L33.6081075,17.8039646 L36.7909847,17.8039646 L36.7909847,19.2554145 L34.0926732,19.2554145 L35.0479711,22.1180509 L37.1395874,22.1180509 L37.1395874,23.5687113 Z" id="Fill-4"></path>
                        <path d="M41.9553639,22.090814 L48.3804043,22.090814 L48.3804043,15.8827771 L41.9691973,15.8827771 L41.9553639,22.090814 Z M41.962083,15.8827771 L41.962083,22.090814 L41.962083,15.8827771 Z M51.1929405,23.5422639 L39.149942,23.5422639 L39.149942,22.090814 L40.5091764,22.090814 L40.5091764,14.4313273 L44.4513118,14.4313273 L44.4513118,13.6382996 L39.5522976,13.6382996 L39.5522976,12.1868498 L44.4513118,12.1868498 L44.4513118,11.5150065 L45.9046136,11.5150065 L45.9046136,12.1868498 L50.8040231,12.1868498 L50.8040231,13.6382996 L45.9046136,13.6382996 L45.9046136,14.4313273 L49.8337061,14.4313273 L49.8337061,22.090814 L51.1929405,22.090814 L51.1929405,23.5422639 Z" id="Fill-5"></path>
                        <path d="M61.4528874,22.2657617 L63.027133,22.2657617 L63.027133,21.472734 L61.4528874,21.472734 L61.4528874,22.2657617 Z M61.4528874,20.1420739 L63.027133,20.1420739 L63.027133,19.3494409 L61.4528874,19.3494409 L61.4528874,20.1420739 Z M61.4524921,13.1812725 L61.4524921,13.1812725 L61.4524921,14.6595645 L61.4524921,13.1812725 Z M60.1205294,14.6595645 L60.1205294,13.1812725 L60.1205294,14.6595645 Z M58.5462838,22.2657617 L60.1205294,22.2657617 L60.1205294,21.472734 L58.5462838,21.472734 L58.5462838,22.2657617 Z M58.5462838,20.1424686 L60.1205294,20.1424686 L60.1205294,19.3498357 L58.5462838,19.3498357 L58.5462838,20.1424686 Z M60.1205294,17.7633856 L60.1205294,16.4871992 L57.6581769,18.0187808 L63.9286781,18.0187808 L61.4524921,16.4871992 L61.4524921,17.7633856 L60.1205294,17.7633856 Z M60.1205294,13.1812725 L57.1874447,13.1812725 L57.1874447,11.8506123 L63.0674476,11.8506123 L64.0630601,11.5016644 L64.5073111,12.7648244 L63.2824587,13.1812725 L61.4524921,13.1812725 L61.4524921,13.9202211 L61.4524921,14.6595645 L64.8570996,14.6595645 L64.8570996,15.9902247 L63.161515,15.9902247 L64.7760751,16.9979896 L64.1302511,18.0187808 L64.3590957,18.0187808 L64.3590957,23.5960271 L57.2143211,23.5960271 L57.2143211,18.0187808 L57.4431657,18.0187808 L56.8107799,16.9979896 L58.42534,15.9902247 L56.7163172,15.9902247 L56.7163172,14.6595645 L60.1205294,14.6595645 L60.1205294,13.1812725 Z M56.5147442,15.0894337 L55.5321747,15.0894337 L55.5321747,17.2533847 L55.8819631,16.9308842 L56.8506992,18.0057544 L55.5321747,19.2148354 L55.5321747,23.5826061 L53.379296,23.5826061 L53.379296,22.1311562 L54.0792681,22.1311562 L54.0792681,19.3900989 L52.9623166,19.3900989 L52.9623166,17.9386491 L54.0792681,17.9386491 L54.0792681,15.0894337 L52.7872248,15.0894337 L52.7872248,13.6383786 L54.0792681,13.6383786 L54.0792681,11.5281118 L55.5321747,11.5281118 L55.5321747,13.6383786 L56.5147442,13.6383786 L56.5147442,15.0894337 Z" id="Fill-6"></path>
                        <path d="M83.4775829,15.485987 L89.5235871,15.485987 L86.5003874,13.5000625 L83.4775829,15.485987 Z M83.2625717,22.1009983 L89.7113266,22.1009983 L89.7113266,19.3370462 L83.2625717,19.3370462 L83.2625717,22.1009983 Z M81.8116414,23.5504744 L91.1626522,23.5504744 L91.1626522,17.8879648 L81.8116414,17.8879648 L81.8116414,23.5504744 Z M90.4369894,16.9350684 L82.5641806,16.9350684 L82.5641806,16.0899354 L81.2606752,16.9484895 L80.4682167,15.7544085 L85.7751198,12.2388762 L85.7751198,11.5409802 L87.2260502,11.5409802 L87.2260502,12.2388762 L92.5463915,15.7544085 L91.753933,16.9484895 L90.4369894,16.0899354 L90.4369894,16.9350684 Z" id="Fill-7"></path>
                        <path d="M102.034551,17.5044378 L97.4173437,17.5044378 L97.4106246,18.0120702 L102.027832,18.0120702 L102.034551,17.5044378 Z M96.1802388,22.1011562 L103.285094,22.1011562 L103.285094,21.3231285 L96.1802388,21.3231285 L96.1802388,22.1011562 Z M95.9798516,16.0553564 L103.485481,16.0553564 L103.478762,19.4611517 L95.9727372,19.4611517 L95.9798516,16.0553564 Z M94.7293085,23.5502376 L104.722586,23.5502376 L104.722586,19.8736524 L94.7293085,19.8736524 L94.7293085,23.5502376 Z M104.013919,16.3577253 L104.013919,15.6144346 L95.4514141,15.6144346 L95.4514141,16.3577253 L94.0000886,16.3577253 L94.0000886,14.1653531 L105.464849,14.1653531 L105.464849,16.3577253 L104.013919,16.3577253 Z M101.848788,13.9237738 L101.842069,13.5539047 L97.6098262,13.5539047 L97.6165453,13.9237738 L96.1656149,13.9237738 L96.1588958,13.5539047 L93.9937647,13.5539047 L93.9937647,12.1048233 L96.1588958,12.1048233 L96.1588958,11.514296 L97.6098262,11.514296 L97.6098262,12.1048233 L101.842069,12.1048233 L101.842069,11.514296 L103.292999,11.514296 L103.292999,12.1048233 L105.45813,12.1048233 L105.45813,13.5539047 L103.292999,13.5539047 L103.299718,13.9237738 L101.848788,13.9237738 Z" id="Fill-8"></path>
                        <path d="M127.328523,18.6503608 L130.988457,18.6503608 L130.988457,15.1640391 L127.328523,15.1640391 L127.328523,18.6503608 Z M122.204222,18.6503608 L125.877593,18.6503608 L125.877593,15.1640391 L122.204222,15.1640391 L122.204222,18.6503608 Z M127.328523,11.5008749 L127.328523,13.7149576 L132.439387,13.7149576 L132.439387,20.0994422 L127.328523,20.0994422 L127.328523,23.5233954 L125.877593,23.5233954 L125.877593,20.0994422 L120.753291,20.0994422 L120.753291,13.7149576 L125.877593,13.7149576 L125.877593,11.5008749 L127.328523,11.5008749 Z" id="Fill-9"></path>
                        <polygon id="Fill-10" points="41.3070498 17.7752277 48.6170352 17.7752277 48.6170352 16.4868045 41.3070498 16.4868045"></polygon>
                        <polygon id="Fill-11" points="41.3070498 19.6107572 48.6170352 19.6107572 48.6170352 18.3223339 41.3070498 18.3223339"></polygon>
                        <polygon id="Fill-12" points="41.3070498 21.4241813 48.490558 21.4241813 48.490558 20.1578634 41.3070498 20.1578634"></polygon>
                        <polygon id="Fill-13" points="139.01952 12.555653 137.370179 12.555653 137.370179 23.577514 137.468989 23.577514 139.01952 23.577514 143.152952 23.577514 143.152952 22.0542219 139.01952 22.0542219"></polygon>
                        <polygon id="Fill-14" points="142.303974 16.7334365 141.836404 11.6215856 140.175205 11.6215856 140.667676 16.7334365"></polygon>
                        <polygon id="Fill-15" points="143.485231 14.534038 144.050822 23.2462897 145.699372 23.2462897 145.133782 14.534038"></polygon>
                        <polygon id="Fill-16" points="134.134339 23.2460134 135.78289 23.2460134 136.386028 14.5337617 134.737082 14.5337617"></polygon>
                        <path d="M77.1765692,14.8150911 L77.1765692,13.24522 L75.3224928,13.24522 L75.0833719,13.5002204 L75.8742495,13.5002204 L75.873459,14.8150911 L76.5180974,15.3519341 L77.1765692,14.8150911 Z M71.0234547,15.3673289 L71.9692668,15.3673289 L71.9692668,14.7511436 L71.0234547,14.7511436 L71.0234547,15.3673289 Z M68.7472608,15.3673289 L69.6930729,15.3673289 L69.6930729,14.7511436 L68.7472608,14.7511436 L68.7472608,15.3673289 Z M71.0230594,16.5018045 L71.0230594,18.250097 L69.6930729,18.250097 L69.6930729,16.5018045 L67.5378228,16.5018045 L67.5378228,13.616668 L69.6930729,13.616668 L69.6930729,13.2183778 L67.0734144,13.2183778 L67.0734144,11.8900861 L69.6930729,11.8900861 L69.6930729,11.514296 L71.0230594,11.514296 L71.0230594,11.8900861 L73.6296749,11.8900861 L73.6296749,13.1781146 L74.1672029,12.5473241 L74.1672029,11.514296 L75.4971894,11.514296 L75.4971894,11.9169282 L79.0978365,11.9169282 L79.0978365,13.24522 L78.5065557,13.24522 L78.5065557,15.4458816 L77.566277,16.2104882 L79.0709601,17.4452272 L78.2243535,18.4648342 L76.5180974,17.0828581 L74.8252795,18.4648342 L73.9790681,17.4452272 L75.470313,16.2239093 L74.5430773,15.4593027 L74.5430773,14.1440373 L74.4221335,14.2782481 L73.4281019,13.4062729 L73.5893603,13.2183778 L71.0230594,13.2183778 L71.0230594,13.616668 L73.1648713,13.616668 L73.1648713,16.5018045 L71.0230594,16.5018045 Z M78.9634545,19.8870734 L74.1403265,19.8870734 L74.1403265,22.2085248 L79.0978365,22.2085248 L79.0978365,23.5368165 L67.0599762,23.5368165 L67.0599762,22.2085248 L68.9219574,22.2085248 L68.9219574,20.3536532 L70.3728877,20.3536532 L70.3728877,22.2085248 L72.6890009,22.2085248 L72.6890009,19.8870734 L67.18092,19.8870734 L67.18092,18.5587817 L78.9634545,18.5587817 L78.9634545,19.8870734 Z" id="Fill-17"></path>
                        <polygon id="Fill-18" points="68.4047448 18.2502154 67.5632763 17.2215294 69.4043097 15.7013952 70.2461734 16.7300812"></polygon>
                        <polygon id="Fill-19" points="72.3114666 18.2502154 73.152935 17.2215294 71.3119017 15.7013952 70.4704332 16.7300812"></polygon>
                        <polygon id="Fill-20" points="73.832236 21.7004976 77.1799287 21.7004976 77.1799287 20.3951006 73.832236 20.3951006"></polygon>
                        <path d="M116.36979,22.1144983 L117.498204,22.1144983 L117.498204,16.385278 L113.427615,16.385278 L113.427615,23.5098954 L111.976685,23.5098954 L111.976685,14.9358018 L114.744163,14.9358018 L114.744163,11.500796 L116.195094,11.500796 L116.195094,14.9358018 L118.949529,14.9358018 L118.949529,23.5501586 L116.36979,23.5501586 L116.36979,22.1144983 Z M111.41228,23.5501586 L108.711597,23.5501586 L108.711597,20.1285739 L107.327858,20.1285739 L107.327858,18.6794924 L108.711597,18.6794924 L108.711597,17.4719904 L107.421925,17.4719904 L107.421925,16.0225142 L111.452595,16.0225142 L111.452595,17.4719904 L110.162923,17.4719904 L110.162923,18.6794924 L111.5601,18.6794924 L111.5601,20.1285739 L110.162923,20.1285739 L110.162923,22.1010772 L111.41228,22.1010772 L111.41228,23.5501586 Z" id="Fill-21"></path>
                        <polygon id="Fill-22" points="113.161104 18.6973346 117.961703 18.6973346 117.961703 17.2482531 113.161104 17.2482531"></polygon>
                        <polygon id="Fill-23" points="113.202604 20.8853646 117.919807 20.8853646 117.919807 19.4611517 113.202604 19.4611517"></polygon>
                        <polygon id="Fill-24" points="111.381214 13.008417 109.388013 13.008417 109.690372 11.8301255 108.193199 11.827757 107.242249 15.5339476 108.740213 15.5339476 109.016486 14.4574984 111.381214 14.4574984"></polygon>
                        <polygon id="Fill-25" points="117.518361 11.6841515 116.949214 13.9025764 118.443225 13.9175764 119.016325 11.6841515"></polygon>
                        <polygon id="Fill-26" points="113.604367 11.6841515 114.173514 13.9025764 112.679502 13.9175764 112.106403 11.6841515"></polygon>
                        <polygon id="Fill-27" points="59.2232924 13.4412466 59.8493544 14.3996693 58.2881518 14.4071693 57.6581374 13.4337466"></polygon>
                        <polygon id="Fill-28" points="62.363523 13.4412466 61.737461 14.3996693 63.2986636 14.4071693 63.9286781 13.4337466"></polygon>
                        <polygon id="Fill-29" points="82.5639039 16.9352263 90.437108 16.9352263 90.437108 15.4861449 82.5639039 15.4861449"></polygon>
                    </g>
                </g>
            </g>
        </g>
    </g>
</svg>