<?xml version="1.0" encoding="UTF-8"?>
<svg width="751px" height="35px" viewBox="0 0 751 35" version="1.1" xmlns="http://www.w3.org/2000/svg" xmlns:xlink="http://www.w3.org/1999/xlink">
    <!-- Generator: Sketch 47 (45396) - http://www.bohemiancoding.com/sketch -->
    <title>留下您的联系方式，我们的广告顾问将与您联</title>
    <desc>Created with Sketch.</desc>
    <defs></defs>
    <g id="通用组件" stroke="none" stroke-width="1" fill="none" fill-rule="evenodd">
        <g id="footer" transform="translate(-375.000000, -54.000000)" fill="#FFFFFF">
            <g id="留下您的联系方式，我们的广告顾问将与您联">
                <path d="M401.988,72.084 L401.988,87.42 L400.8,87.42 L400.8,85.368 L379.344,85.368 L379.344,87.456 L378.156,87.456 L378.156,72.084 L401.988,72.084 Z M379.344,84.144 L389.568,84.144 L389.568,79.392 L379.344,79.392 L379.344,84.144 Z M390.792,84.144 L400.8,84.144 L400.8,79.392 L390.792,79.392 L390.792,84.144 Z M379.344,78.24 L389.568,78.24 L389.568,73.308 L379.344,73.308 L379.344,78.24 Z M390.792,73.308 L390.792,78.24 L400.8,78.24 L400.8,73.308 L390.792,73.308 Z M385.356,60.024 L384.168,60.384 C384.816,61.968 385.464,63.624 386.04,65.316 C384.096,66.324 381.288,67.368 377.58,68.412 L377.58,58.908 C381.972,58.44 385.608,57.468 388.416,55.992 L387.768,54.984 C384.744,56.496 380.964,57.468 376.392,57.936 L376.392,68.052 C376.392,68.412 375.996,68.736 375.276,68.988 L375.708,70.14 C380.064,68.988 383.628,67.728 386.436,66.396 C386.868,67.764 387.3,69.132 387.732,70.536 L388.92,70.104 C388.092,67.08 386.904,63.696 385.356,60.024 Z M394.644,57.864 C394.32,60.672 393.852,62.904 393.204,64.632 C392.52,66.288 391.512,67.8 390.18,69.168 L390.9,70.104 C392.412,68.592 393.528,66.936 394.284,65.064 C394.968,63.264 395.472,60.888 395.832,57.864 L402.528,57.864 C402.528,61.68 402.42,64.308 402.204,65.784 C401.916,67.656 401.088,68.664 399.684,68.736 C398.748,68.736 397.632,68.7 396.3,68.628 L396.66,69.78 C397.884,69.816 398.928,69.852 399.828,69.852 C401.736,69.744 402.888,68.628 403.284,66.468 C403.572,64.776 403.752,61.5 403.788,56.64 L390.216,56.64 L390.216,57.864 L394.644,57.864 Z M410.16,57.108 L410.16,58.332 L424.452,58.332 L424.452,87.564 L425.64,87.564 L425.64,66.18 C429.312,68.124 433.74,70.932 438.924,74.532 L439.644,73.452 C434.892,70.212 430.248,67.368 425.64,64.92 L425.64,58.332 L441.804,58.332 L441.804,57.108 L410.16,57.108 Z M464.988,74.46 L462.036,74.46 L461.784,73.272 C462.756,73.308 463.692,73.344 464.592,73.344 C465.384,73.344 465.78,72.876 465.78,71.976 L465.78,61.644 L467.004,61.644 L467.004,72.264 C467.004,73.704 466.32,74.46 464.988,74.46 Z M450.84,62.58 C449.508,64.308 448.032,65.928 446.448,67.368 L445.692,66.432 C449.292,63.192 452.028,59.268 453.972,54.66 L455.16,54.984 C454.296,57.108 453.252,59.052 452.064,60.852 L452.064,74.64 L450.84,74.64 L450.84,62.58 Z M462.072,54.624 L463.224,54.948 C462.72,56.136 462.144,57.252 461.568,58.332 L476.472,58.332 L476.472,59.16 C476.04,60.96 475.428,62.724 474.708,64.452 L473.556,64.164 C474.276,62.724 474.816,61.176 475.248,59.52 L460.848,59.52 C459.444,61.752 457.752,63.732 455.772,65.496 L455.016,64.56 C458.076,61.824 460.416,58.512 462.072,54.624 Z M450.3,76.872 C449.544,79.968 448.428,82.74 446.916,85.116 L447.96,85.8 C449.472,83.352 450.66,80.472 451.488,77.124 L450.3,76.872 Z M467.328,86.88 L458.004,86.88 C456.168,86.88 455.268,85.98 455.268,84.252 L455.268,76.188 L456.528,76.188 L456.528,84 C456.528,85.116 457.14,85.692 458.364,85.692 L467.112,85.692 C467.976,85.692 468.588,85.476 468.912,85.044 C469.38,84.468 469.704,82.776 469.848,80.004 L471,80.4 C470.82,83.388 470.424,85.26 469.812,86.052 C469.308,86.592 468.48,86.88 467.328,86.88 Z M472.98,75.936 L471.972,76.548 C474.24,79.644 476.04,82.452 477.336,85.044 L478.308,84.324 C477.084,81.912 475.284,79.104 472.98,75.936 Z M461.028,65.532 L462.108,66 C460.704,68.808 459.048,71.256 457.176,73.308 L456.24,72.624 C458.112,70.644 459.696,68.268 461.028,65.532 Z M471.828,65.496 L470.712,65.928 C472.44,68.124 473.988,70.644 475.392,73.488 L476.472,72.948 C475.104,70.212 473.556,67.728 471.828,65.496 Z M461.316,75.18 C463.26,77.34 464.772,79.212 465.78,80.796 L464.808,81.516 C463.728,79.788 462.216,77.88 460.344,75.792 L461.316,75.18 Z M493.968,61.428 L493.968,85.224 L492.744,85.224 L492.744,82.848 L484.752,82.848 L484.752,86.232 L483.528,86.232 L483.528,61.428 L486.696,61.428 C487.488,59.34 488.064,57.108 488.424,54.768 L489.648,54.948 C489.252,57.288 488.676,59.448 487.884,61.428 L493.968,61.428 Z M484.752,81.696 L492.744,81.696 L492.744,72.516 L484.752,72.516 L484.752,81.696 Z M484.752,71.364 L492.744,71.364 L492.744,62.652 L484.752,62.652 L484.752,71.364 Z M499.908,69.312 C502.788,72.372 505.02,75.036 506.532,77.34 L505.56,78.06 C503.976,75.612 501.744,72.912 498.936,69.96 L499.908,69.312 Z M512.652,61.5 C512.652,72.732 512.472,79.68 512.148,82.344 C511.824,85.368 510.204,86.916 507.252,86.916 C506.604,86.916 505.452,86.88 503.868,86.88 L503.544,85.728 C504.948,85.728 506.172,85.764 507.18,85.764 C509.376,85.764 510.636,84.54 510.96,82.164 C511.248,79.788 511.392,73.308 511.464,62.724 L500.088,62.724 C499.08,65.136 497.856,67.296 496.416,69.24 L495.696,68.268 C498.396,64.596 500.232,60.06 501.204,54.732 L502.392,54.876 C501.96,57.252 501.348,59.448 500.592,61.5 L512.652,61.5 Z M532.74,63.012 L541.848,63.012 C543.324,60.492 544.548,57.792 545.556,54.876 L546.708,55.308 C545.52,58.44 544.296,60.996 543.072,63.012 L549.3,63.012 L549.3,64.236 L541.452,64.236 L541.452,66.036 C541.452,68.052 541.308,69.96 541.092,71.76 L549.912,71.76 L549.912,72.984 L541.704,72.984 C542.532,77.376 545.412,81.876 550.38,86.448 L549.552,87.312 C544.512,82.632 541.596,77.988 540.804,73.416 C539.58,79.86 536.664,84.54 532.056,87.42 L531.3,86.448 C535.764,83.748 538.572,79.248 539.688,72.984 L532.2,72.984 L532.2,71.76 L539.868,71.76 C540.12,70.032 540.264,68.232 540.264,66.324 L540.264,64.236 L532.74,64.236 L532.74,63.012 Z M535.548,55.2 C537.096,57.396 538.284,59.304 539.148,60.924 L538.176,61.608 C537.312,59.844 536.124,57.9 534.576,55.812 L535.548,55.2 Z M517.836,56.64 L531.84,56.64 L531.84,57.828 L528.996,57.828 L528.996,79.068 C530.004,78.78 530.976,78.456 531.912,78.168 L531.912,79.392 L528.996,80.256 L528.996,87.78 L527.808,87.78 L527.808,80.58 C524.748,81.408 521.544,82.128 518.232,82.704 L517.908,81.552 C518.772,81.408 519.636,81.228 520.5,81.084 L520.5,57.828 L517.836,57.828 L517.836,56.64 Z M521.688,80.832 C523.776,80.436 525.828,79.968 527.808,79.428 L527.808,73.02 L521.688,73.02 L521.688,80.832 Z M521.688,71.868 L527.808,71.868 L527.808,65.532 L521.688,65.532 L521.688,71.868 Z M521.688,64.344 L527.808,64.344 L527.808,57.828 L521.688,57.828 L521.688,64.344 Z M568.56,87.312 L564.6,87.312 L564.348,86.124 C565.644,86.16 566.904,86.196 568.128,86.196 C569.244,86.196 569.82,85.656 569.82,84.612 L569.82,74.388 C566.292,74.604 562.404,74.82 558.156,75 L557.796,73.884 C558.228,73.812 558.588,73.74 558.948,73.632 C562.476,72.156 566.436,69.708 570.9,66.288 C567.3,66.576 563.448,66.792 559.308,67.008 L559.02,65.856 C559.308,65.82 559.632,65.748 559.92,65.64 C562.44,64.416 565.248,62.112 568.344,58.728 C564.888,58.98 561.216,59.124 557.256,59.124 L556.896,58.008 C567.264,57.972 575.652,57.108 582.096,55.452 L582.744,56.532 C579.108,57.504 574.824,58.188 569.928,58.62 C566.976,61.968 564.132,64.416 561.396,65.928 C565.032,65.712 568.632,65.496 572.232,65.244 C573.996,63.804 575.796,62.256 577.668,60.6 L578.82,61.176 C572.088,67.296 566.148,71.508 561.036,73.812 C568.38,73.452 574.536,73.02 579.504,72.444 C578.496,71.112 577.38,69.744 576.192,68.376 L577.128,67.8 C580.08,71.184 582.312,74.136 583.86,76.656 L582.852,77.376 C582.132,76.116 581.268,74.82 580.296,73.488 C577.596,73.776 574.5,74.064 571.008,74.316 L571.008,84.936 C571.008,86.52 570.18,87.312 568.56,87.312 Z M576.156,77.34 C579.828,80.076 582.924,82.776 585.444,85.512 L584.544,86.412 C582.24,83.748 579.144,81.012 575.292,78.132 L576.156,77.34 Z M563.52,77.628 L564.42,78.42 C561.936,81.372 558.876,83.964 555.204,86.196 L554.448,85.188 C558.048,83.028 561.072,80.508 563.52,77.628 Z M590.772,60.492 L590.772,61.716 L601.14,61.716 C601.104,62.904 601.032,64.956 600.888,67.872 C600.672,71.364 599.952,74.532 598.728,77.376 C597.36,80.256 594.768,83.316 590.952,86.556 L591.852,87.384 C594.948,84.864 597.396,82.128 599.196,79.14 C600.528,76.62 601.392,73.776 601.788,70.644 L615.756,70.644 C615.756,75.684 615.648,79.176 615.432,81.12 C615,84.252 613.596,85.872 611.256,85.98 C610.068,85.98 608.592,85.944 606.828,85.908 L607.224,87.024 C608.844,87.096 610.248,87.132 611.4,87.132 C614.244,86.988 615.936,85.188 616.512,81.804 C616.8,79.716 616.98,75.576 617.016,69.456 L601.932,69.456 L602.004,68.772 C602.184,65.568 602.292,63.228 602.364,61.716 L621.696,61.716 L621.696,60.492 L608.052,60.492 C607.116,58.188 606.108,56.28 605.028,54.696 L603.84,55.128 C605.028,56.784 606,58.584 606.756,60.492 L590.772,60.492 Z M626.448,61.68 L644.664,61.68 C644.52,59.484 644.484,57.216 644.484,54.84 L645.78,54.84 C645.78,57.252 645.816,59.52 645.96,61.68 L657.552,61.68 L657.552,62.904 L646.032,62.904 C646.464,69.852 647.544,75.54 649.272,79.968 C650.82,83.892 652.332,85.872 653.808,85.944 C654.816,85.728 655.788,83.46 656.688,79.14 L657.804,79.716 C656.724,84.684 655.392,87.168 653.88,87.24 C651.144,87.168 648.66,83.244 646.5,75.504 C645.636,71.904 645.024,67.692 644.736,62.904 L626.448,62.904 L626.448,61.68 Z M627.06,70.068 L641.964,70.068 L641.964,71.292 L635.124,71.292 L635.124,82.308 C638.004,81.804 640.74,81.192 643.404,80.508 L643.404,81.732 C638.292,82.992 632.784,84.036 626.808,84.828 L626.484,83.64 C629.004,83.316 631.488,82.956 633.9,82.524 L633.9,71.292 L627.06,71.292 L627.06,70.068 Z M651.108,55.164 C652.44,56.64 653.664,58.224 654.816,59.952 L653.736,60.492 C652.584,58.692 651.36,57.072 650.064,55.668 L651.108,55.164 Z M666.372,81.12 C665.868,81.12 665.508,81.228 665.256,81.516 C664.968,81.768 664.86,82.128 664.86,82.632 C664.86,82.992 665.004,83.352 665.292,83.64 C665.58,83.928 665.904,84.072 666.3,84.072 C666.66,84.072 666.876,84.036 666.984,84 C666.984,84.864 666.804,85.584 666.372,86.196 C665.904,86.844 665.22,87.276 664.32,87.564 L664.32,88.644 C665.436,88.392 666.372,87.816 667.092,86.952 C667.812,86.052 668.208,84.972 668.208,83.748 C668.208,82.956 668.064,82.308 667.776,81.876 C667.416,81.372 666.948,81.12 666.372,81.12 Z M714.396,71.904 L714.396,73.164 C712.092,73.956 709.68,74.676 707.124,75.324 L707.124,84.432 C707.124,86.088 706.224,86.952 704.424,86.952 L700.5,86.952 L700.248,85.764 C701.544,85.836 702.804,85.872 704.028,85.872 C705.252,85.872 705.9,85.26 705.9,84.108 L705.9,75.612 C703.38,76.188 700.752,76.728 698.016,77.16 L697.836,75.972 C700.68,75.504 703.38,74.964 705.9,74.388 L705.9,66.288 L697.944,66.288 L697.944,65.1 L705.9,65.1 L705.9,58.584 C703.812,59.016 701.58,59.412 699.24,59.7 L698.988,58.512 C704.28,57.9 708.924,56.82 712.884,55.308 L713.316,56.496 C711.408,57.18 709.356,57.792 707.124,58.296 L707.124,65.1 L717.276,65.1 C717.06,62.004 716.952,58.584 716.952,54.84 L718.176,54.84 C718.176,58.692 718.284,62.112 718.5,65.1 L730.056,65.1 L730.056,66.288 L718.608,66.288 C718.86,69.204 719.22,71.688 719.724,73.74 C720.012,75.036 720.372,76.224 720.732,77.304 C722.82,74.964 724.656,72.228 726.168,69.06 L727.248,69.636 C725.592,73.128 723.576,76.116 721.2,78.6 C721.812,80.184 722.496,81.588 723.252,82.74 C724.584,84.612 725.7,85.584 726.564,85.584 C727.644,85.548 728.508,83.28 729.228,78.744 L730.308,79.32 C729.48,84.36 728.292,86.88 726.78,86.88 C725.412,86.88 723.972,85.764 722.388,83.604 C721.596,82.416 720.876,81.048 720.264,79.536 C717.492,82.2 714.288,84.252 710.688,85.692 L710.004,84.612 C713.748,83.172 717.024,81.084 719.796,78.276 C719.292,76.908 718.86,75.468 718.5,73.884 C717.996,71.688 717.636,69.168 717.384,66.288 L707.124,66.288 L707.124,74.1 C709.716,73.452 712.164,72.696 714.396,71.904 Z M722.136,55.344 C724.8,57.216 726.996,59.088 728.796,60.996 L727.932,61.86 C726.24,60.06 724.008,58.152 721.272,56.136 L722.136,55.344 Z M761.628,87.204 C763.572,87.204 764.544,86.124 764.544,84.036 L764.544,57.576 L753.888,57.576 L753.888,58.764 L763.32,58.764 L763.32,83.712 C763.32,85.26 762.672,86.052 761.376,86.052 L757.632,86.016 L757.956,87.204 L761.628,87.204 Z M747.912,54.804 L746.94,55.416 C748.74,57.576 750.144,59.556 751.188,61.392 L752.16,60.672 C751.152,58.98 749.748,57.036 747.912,54.804 Z M742.44,54.696 C740.64,60.384 737.652,65.568 733.44,70.212 L733.836,71.472 C735.6,69.636 737.184,67.656 738.624,65.496 L738.624,87.528 L739.848,87.528 L739.848,63.516 C741.324,60.96 742.548,58.188 743.556,55.2 L742.44,54.696 Z M745.536,60.888 L745.536,87.384 L746.76,87.384 L746.76,60.888 L745.536,60.888 Z M781.968,61.428 L781.968,85.224 L780.744,85.224 L780.744,82.848 L772.752,82.848 L772.752,86.232 L771.528,86.232 L771.528,61.428 L774.696,61.428 C775.488,59.34 776.064,57.108 776.424,54.768 L777.648,54.948 C777.252,57.288 776.676,59.448 775.884,61.428 L781.968,61.428 Z M772.752,81.696 L780.744,81.696 L780.744,72.516 L772.752,72.516 L772.752,81.696 Z M772.752,71.364 L780.744,71.364 L780.744,62.652 L772.752,62.652 L772.752,71.364 Z M787.908,69.312 C790.788,72.372 793.02,75.036 794.532,77.34 L793.56,78.06 C791.976,75.612 789.744,72.912 786.936,69.96 L787.908,69.312 Z M800.652,61.5 C800.652,72.732 800.472,79.68 800.148,82.344 C799.824,85.368 798.204,86.916 795.252,86.916 C794.604,86.916 793.452,86.88 791.868,86.88 L791.544,85.728 C792.948,85.728 794.172,85.764 795.18,85.764 C797.376,85.764 798.636,84.54 798.96,82.164 C799.248,79.788 799.392,73.308 799.464,62.724 L788.088,62.724 C787.08,65.136 785.856,67.296 784.416,69.24 L783.696,68.268 C786.396,64.596 788.232,60.06 789.204,54.732 L790.392,54.876 C789.96,57.252 789.348,59.448 788.592,61.5 L800.652,61.5 Z M822.072,54.084 L820.776,54.336 C821.64,55.704 822.432,57.252 823.152,58.98 L809.4,58.98 L809.4,68.952 C809.292,76.62 808.068,82.596 805.728,86.844 L806.664,87.78 C809.184,83.064 810.516,76.8 810.624,68.952 L810.624,60.168 L837.84,60.168 L837.84,58.98 L824.412,58.98 C823.692,57.144 822.9,55.524 822.072,54.084 Z M869.34,74.82 L869.34,87.384 L868.08,87.384 L868.08,85.224 L848.136,85.224 L848.136,87.384 L846.876,87.384 L846.876,74.82 L869.34,74.82 Z M848.136,84 L868.08,84 L868.08,76.008 L848.136,76.008 L848.136,84 Z M848.316,61.536 L857.856,61.536 L857.856,68.736 L841.908,68.736 L841.908,69.96 L874.092,69.96 L874.092,68.736 L859.044,68.736 L859.044,61.536 L871.392,61.536 L871.392,60.348 L859.044,60.348 L859.044,54.696 L857.856,54.696 L857.856,60.348 L849.072,60.348 C849.936,58.908 850.62,57.36 851.124,55.632 L849.9,55.488 C848.712,59.376 846.408,62.652 843.024,65.352 L843.78,66.324 C845.58,64.884 847.092,63.3 848.316,61.536 Z M894.9,56.856 L909.84,56.856 L909.84,58.008 L902.748,58.008 C902.568,59.808 902.316,61.536 901.956,63.12 L908.148,63.12 L908.148,79.824 L906.96,79.824 L906.96,64.272 L897.384,64.272 L897.384,79.896 L896.196,79.896 L896.196,63.12 L900.768,63.12 C901.128,61.5 901.416,59.808 901.596,58.008 L894.9,58.008 L894.9,56.856 Z M903.828,80.976 L903,81.732 C905.736,83.82 907.896,85.8 909.552,87.708 L910.38,86.844 C908.616,84.9 906.42,82.92 903.828,80.976 Z M901.704,66.54 L902.82,66.54 L902.82,72.696 C902.784,76.656 902.028,79.86 900.588,82.272 C899.112,84.432 896.7,86.196 893.388,87.492 L892.74,86.484 C895.98,85.296 898.32,83.604 899.76,81.372 C901.02,79.14 901.668,76.224 901.704,72.696 L901.704,66.54 Z M884.928,85.44 L884.388,84.216 C884.892,84.072 885.144,83.784 885.144,83.424 L885.144,64.164 L892.632,64.164 L892.632,73.776 C892.632,75.216 891.912,75.936 890.508,75.936 C889.86,75.936 889.14,75.9 888.42,75.864 L888.096,74.784 C888.816,74.784 889.536,74.82 890.22,74.82 C891.084,74.82 891.516,74.388 891.516,73.524 L891.516,65.28 L886.26,65.28 L886.26,83.82 C888.492,83.028 890.796,81.948 893.172,80.652 L893.388,81.804 C890.796,83.244 887.988,84.432 884.928,85.44 Z M893.352,56.892 L893.352,58.116 L881.508,58.116 L881.508,71.04 C881.4,77.808 880.392,83.244 878.52,87.348 L877.62,86.52 C879.312,82.812 880.212,77.664 880.284,71.04 L880.284,56.892 L893.352,56.892 Z M940.692,87.276 L936.588,87.276 L936.264,86.088 L940.44,86.124 C941.988,86.124 942.78,85.116 942.78,83.172 L942.78,58.476 L928.2,58.476 L928.2,57.252 L944.04,57.252 L944.04,83.496 C944.04,86.016 942.924,87.276 940.692,87.276 Z M915.96,60.744 L915.96,87.456 L917.22,87.456 L917.22,60.744 L915.96,60.744 Z M924.168,66.396 L935.688,66.396 L935.688,78.636 L924.168,78.636 L924.168,66.396 Z M934.5,77.448 L934.5,67.584 L925.356,67.584 L925.356,77.448 L934.5,77.448 Z M919.956,54.552 L918.804,55.056 C920.532,57.036 922.116,59.268 923.556,61.788 L924.636,61.212 C923.268,58.8 921.72,56.568 919.956,54.552 Z M962.04,72.696 L976.224,72.696 L976.224,68.592 L977.448,68.592 L977.448,72.696 L982.308,72.696 L982.308,73.884 L977.448,73.884 L977.448,84.648 C977.448,86.412 976.512,87.312 974.64,87.312 L969.852,87.312 L969.636,86.124 C971.22,86.196 972.768,86.232 974.208,86.232 C975.54,86.232 976.224,85.584 976.224,84.36 L976.224,73.884 L962.04,73.884 L962.04,72.696 Z M957.756,54.768 L959.016,54.768 L959.016,87.384 L957.756,87.384 L957.756,74.136 C955.056,76.656 952.572,78.636 950.268,80.076 L949.692,78.924 C951.888,77.628 954.588,75.54 957.756,72.696 L957.756,54.768 Z M965.82,76.26 C967.944,78.636 969.564,80.688 970.716,82.452 L969.744,83.172 C968.556,81.264 966.936,79.176 964.92,76.872 L965.82,76.26 Z M968.664,59.016 C966.936,61.104 964.776,62.832 962.112,64.2 L961.32,63.264 C965.496,61.176 968.268,58.332 969.708,54.768 L971.004,55.02 C970.572,56.028 970.068,57 969.492,57.864 L980.616,57.864 L980.616,58.908 C978.24,64.308 972.588,68.124 963.696,70.356 L963.012,69.276 C966.252,68.484 969.024,67.512 971.364,66.324 C969.996,64.956 968.592,63.768 967.152,62.832 L968.088,62.148 C969.6,63.228 971.04,64.452 972.408,65.748 C975.576,63.912 977.88,61.68 979.248,59.016 L968.664,59.016 Z M950.772,59.16 C952.68,61.536 954.336,64.056 955.704,66.756 L954.588,67.26 C953.076,64.308 951.456,61.752 949.692,59.592 L950.772,59.16 Z M992.604,54.588 L993.828,54.696 L993.252,60.168 L1016.076,60.168 L1016.076,61.392 L993.144,61.392 L992.388,68.448 L1013.052,68.448 C1013.052,77.808 1012.368,83.208 1011.072,84.684 C1009.74,86.124 1006.932,86.844 1002.684,86.844 C1001.604,86.844 1000.452,86.808 999.3,86.808 L998.94,85.62 C1000.596,85.692 1001.748,85.764 1002.396,85.764 C1006.86,85.764 1009.524,84.972 1010.424,83.46 C1011.324,81.84 1011.792,77.232 1011.792,69.636 L990.984,69.636 L992.604,54.588 Z M985.908,76.692 L1006.356,76.692 L1006.356,77.916 L985.908,77.916 L985.908,76.692 Z M1040.988,74.46 L1038.036,74.46 L1037.784,73.272 C1038.756,73.308 1039.692,73.344 1040.592,73.344 C1041.384,73.344 1041.78,72.876 1041.78,71.976 L1041.78,61.644 L1043.004,61.644 L1043.004,72.264 C1043.004,73.704 1042.32,74.46 1040.988,74.46 Z M1026.84,62.58 C1025.508,64.308 1024.032,65.928 1022.448,67.368 L1021.692,66.432 C1025.292,63.192 1028.028,59.268 1029.972,54.66 L1031.16,54.984 C1030.296,57.108 1029.252,59.052 1028.064,60.852 L1028.064,74.64 L1026.84,74.64 L1026.84,62.58 Z M1038.072,54.624 L1039.224,54.948 C1038.72,56.136 1038.144,57.252 1037.568,58.332 L1052.472,58.332 L1052.472,59.16 C1052.04,60.96 1051.428,62.724 1050.708,64.452 L1049.556,64.164 C1050.276,62.724 1050.816,61.176 1051.248,59.52 L1036.848,59.52 C1035.444,61.752 1033.752,63.732 1031.772,65.496 L1031.016,64.56 C1034.076,61.824 1036.416,58.512 1038.072,54.624 Z M1026.3,76.872 C1025.544,79.968 1024.428,82.74 1022.916,85.116 L1023.96,85.8 C1025.472,83.352 1026.66,80.472 1027.488,77.124 L1026.3,76.872 Z M1043.328,86.88 L1034.004,86.88 C1032.168,86.88 1031.268,85.98 1031.268,84.252 L1031.268,76.188 L1032.528,76.188 L1032.528,84 C1032.528,85.116 1033.14,85.692 1034.364,85.692 L1043.112,85.692 C1043.976,85.692 1044.588,85.476 1044.912,85.044 C1045.38,84.468 1045.704,82.776 1045.848,80.004 L1047,80.4 C1046.82,83.388 1046.424,85.26 1045.812,86.052 C1045.308,86.592 1044.48,86.88 1043.328,86.88 Z M1048.98,75.936 L1047.972,76.548 C1050.24,79.644 1052.04,82.452 1053.336,85.044 L1054.308,84.324 C1053.084,81.912 1051.284,79.104 1048.98,75.936 Z M1037.028,65.532 L1038.108,66 C1036.704,68.808 1035.048,71.256 1033.176,73.308 L1032.24,72.624 C1034.112,70.644 1035.696,68.268 1037.028,65.532 Z M1047.828,65.496 L1046.712,65.928 C1048.44,68.124 1049.988,70.644 1051.392,73.488 L1052.472,72.948 C1051.104,70.212 1049.556,67.728 1047.828,65.496 Z M1037.316,75.18 C1039.26,77.34 1040.772,79.212 1041.78,80.796 L1040.808,81.516 C1039.728,79.788 1038.216,77.88 1036.344,75.792 L1037.316,75.18 Z M1072.74,63.012 L1081.848,63.012 C1083.324,60.492 1084.548,57.792 1085.556,54.876 L1086.708,55.308 C1085.52,58.44 1084.296,60.996 1083.072,63.012 L1089.3,63.012 L1089.3,64.236 L1081.452,64.236 L1081.452,66.036 C1081.452,68.052 1081.308,69.96 1081.092,71.76 L1089.912,71.76 L1089.912,72.984 L1081.704,72.984 C1082.532,77.376 1085.412,81.876 1090.38,86.448 L1089.552,87.312 C1084.512,82.632 1081.596,77.988 1080.804,73.416 C1079.58,79.86 1076.664,84.54 1072.056,87.42 L1071.3,86.448 C1075.764,83.748 1078.572,79.248 1079.688,72.984 L1072.2,72.984 L1072.2,71.76 L1079.868,71.76 C1080.12,70.032 1080.264,68.232 1080.264,66.324 L1080.264,64.236 L1072.74,64.236 L1072.74,63.012 Z M1075.548,55.2 C1077.096,57.396 1078.284,59.304 1079.148,60.924 L1078.176,61.608 C1077.312,59.844 1076.124,57.9 1074.576,55.812 L1075.548,55.2 Z M1057.836,56.64 L1071.84,56.64 L1071.84,57.828 L1068.996,57.828 L1068.996,79.068 C1070.004,78.78 1070.976,78.456 1071.912,78.168 L1071.912,79.392 L1068.996,80.256 L1068.996,87.78 L1067.808,87.78 L1067.808,80.58 C1064.748,81.408 1061.544,82.128 1058.232,82.704 L1057.908,81.552 C1058.772,81.408 1059.636,81.228 1060.5,81.084 L1060.5,57.828 L1057.836,57.828 L1057.836,56.64 Z M1061.688,80.832 C1063.776,80.436 1065.828,79.968 1067.808,79.428 L1067.808,73.02 L1061.688,73.02 L1061.688,80.832 Z M1061.688,71.868 L1067.808,71.868 L1067.808,65.532 L1061.688,65.532 L1061.688,71.868 Z M1061.688,64.344 L1067.808,64.344 L1067.808,57.828 L1061.688,57.828 L1061.688,64.344 Z M1108.56,87.312 L1104.6,87.312 L1104.348,86.124 C1105.644,86.16 1106.904,86.196 1108.128,86.196 C1109.244,86.196 1109.82,85.656 1109.82,84.612 L1109.82,74.388 C1106.292,74.604 1102.404,74.82 1098.156,75 L1097.796,73.884 C1098.228,73.812 1098.588,73.74 1098.948,73.632 C1102.476,72.156 1106.436,69.708 1110.9,66.288 C1107.3,66.576 1103.448,66.792 1099.308,67.008 L1099.02,65.856 C1099.308,65.82 1099.632,65.748 1099.92,65.64 C1102.44,64.416 1105.248,62.112 1108.344,58.728 C1104.888,58.98 1101.216,59.124 1097.256,59.124 L1096.896,58.008 C1107.264,57.972 1115.652,57.108 1122.096,55.452 L1122.744,56.532 C1119.108,57.504 1114.824,58.188 1109.928,58.62 C1106.976,61.968 1104.132,64.416 1101.396,65.928 C1105.032,65.712 1108.632,65.496 1112.232,65.244 C1113.996,63.804 1115.796,62.256 1117.668,60.6 L1118.82,61.176 C1112.088,67.296 1106.148,71.508 1101.036,73.812 C1108.38,73.452 1114.536,73.02 1119.504,72.444 C1118.496,71.112 1117.38,69.744 1116.192,68.376 L1117.128,67.8 C1120.08,71.184 1122.312,74.136 1123.86,76.656 L1122.852,77.376 C1122.132,76.116 1121.268,74.82 1120.296,73.488 C1117.596,73.776 1114.5,74.064 1111.008,74.316 L1111.008,84.936 C1111.008,86.52 1110.18,87.312 1108.56,87.312 Z M1116.156,77.34 C1119.828,80.076 1122.924,82.776 1125.444,85.512 L1124.544,86.412 C1122.24,83.748 1119.144,81.012 1115.292,78.132 L1116.156,77.34 Z M1103.52,77.628 L1104.42,78.42 C1101.936,81.372 1098.876,83.964 1095.204,86.196 L1094.448,85.188 C1098.048,83.028 1101.072,80.508 1103.52,77.628 Z"></path>
            </g>
        </g>
    </g>
</svg>