<?xml version="1.0" encoding="UTF-8"?>
<svg width="592px" height="78px" viewBox="0 0 592 78" version="1.1" xmlns="http://www.w3.org/2000/svg" xmlns:xlink="http://www.w3.org/1999/xlink">
    <!-- Generator: Sketch 47 (45396) - http://www.bohemiancoding.com/sketch -->
    <title>Group 6</title>
    <desc>Created with Sketch.</desc>
    <defs></defs>
    <g id="首页" stroke="none" stroke-width="1" fill="none" fill-rule="evenodd">
        <g transform="translate(-454.000000, -359.000000)" id="Group-6" fill="#1D1B28">
            <g transform="translate(454.000000, 350.000000)">
                <path d="M35.52,9.88 L36.48,9.88 C41.6,15.32 47.44,19.64 54.08,22.76 L53.4,23.92 C46.6,20.64 40.8,16.36 36,11.16 C31.56,16.2 25.72,20.6 18.44,24.28 L17.8,23.08 C24.88,19.56 30.8,15.16 35.52,9.88 Z M24.88,22.8 L47.2,22.8 L47.2,24.12 L36.68,24.12 L36.68,32.6 L48.84,32.6 L48.84,33.92 L36.68,33.92 L36.68,43.08 L52.48,43.08 L52.48,44.44 L19.56,44.44 L19.56,43.08 L35.32,43.08 L35.32,33.92 L23.12,33.92 L23.12,32.6 L35.32,32.6 L35.32,24.12 L24.88,24.12 L24.88,22.8 Z M64.04,30.28 L64.04,43.56 C67.92,42.76 71.8,41.72 75.64,40.36 L75.96,41.72 C72.36,42.92 67.84,44.08 62.36,45.2 L62.04,44.04 C62.44,43.84 62.68,43.56 62.68,43.2 L62.68,11.48 L90.36,11.48 L90.36,21.88 L78.4,21.88 C78.6,24.48 78.92,26.84 79.36,28.92 L92.96,28.92 L92.96,30.28 L79.64,30.28 C80.04,31.92 80.52,33.4 81.08,34.72 C82.52,38 84.08,40.4 85.76,41.96 C87.32,43.32 88.72,44 89.96,44 C90.56,44 91.12,43.56 91.6,42.76 C92.12,41.76 92.56,39.8 92.88,36.88 L94.08,37.56 C93.68,40.88 93.12,43 92.44,43.96 C91.8,44.92 91.08,45.44 90.24,45.44 C88.48,45.4 86.64,44.48 84.76,42.72 C82.88,40.92 81.24,38.32 79.84,34.88 C79.24,33.52 78.76,31.96 78.36,30.28 L64.04,30.28 Z M77.04,21.88 L64.04,21.88 L64.04,28.92 L78.08,28.92 C77.6,26.76 77.24,24.44 77.04,21.88 Z M89.04,12.8 L64.04,12.8 L64.04,20.52 L89.04,20.52 L89.04,12.8 Z M106.8,24.32 L125.32,24.32 L125.32,31.68 L106.8,31.68 L106.8,24.32 Z M124,30.52 L124,25.48 L108.12,25.48 L108.12,30.52 L124,30.52 Z M129.2,35.32 L129.2,45.84 L127.88,45.84 L127.88,44.04 L104.56,44.04 L104.56,45.84 L103.2,45.84 L103.2,35.32 L129.2,35.32 Z M104.56,42.84 L127.88,42.84 L127.88,36.6 L104.56,36.6 L104.56,42.84 Z M99,12.72 L99,13.96 L108.56,13.96 L108.56,16.84 L109.92,16.84 L109.92,13.96 L122.08,13.96 L122.08,16.84 L123.44,16.84 L123.44,13.96 L133,13.96 L133,12.72 L123.44,12.72 L123.44,9.6 L122.08,9.6 L122.08,12.72 L109.92,12.72 L109.92,9.6 L108.56,9.6 L108.56,12.72 L99,12.72 Z M131.44,19.2 L131.44,25.92 L130.08,25.92 L130.08,20.44 L101.92,20.44 L101.92,26.12 L100.56,26.12 L100.56,19.2 L131.44,19.2 Z M162.92,9.6 L164.24,9.6 L164.24,21.2 L172,21.2 L172,42.84 C172,44.64 171.08,45.56 169.32,45.56 L165.08,45.56 L164.68,44.2 L168.84,44.28 C170,44.28 170.6,43.68 170.6,42.56 L170.6,36.44 L156.48,36.44 L156.48,45.76 L155.12,45.76 L155.12,21.2 L162.92,21.2 L162.92,9.6 Z M156.48,29.48 L156.48,35.16 L170.6,35.16 L170.6,29.48 L156.48,29.48 Z M170.6,28.24 L170.6,22.52 L156.48,22.52 L156.48,28.24 L170.6,28.24 Z M155.28,11.12 C156.64,13.28 157.96,15.6 159.16,18.08 L158.04,18.64 C156.8,16.04 155.48,13.72 154.12,11.72 L155.28,11.12 Z M171.84,10.84 L173.04,11.4 C172,13.88 170.64,16.32 169,18.68 L167.88,18.08 C169.52,15.64 170.84,13.24 171.84,10.84 Z M143.64,9.56 L145,9.84 C144.56,11.48 144.08,13.04 143.56,14.52 L151.8,14.52 L151.8,15.84 L143.12,15.84 C142,18.76 140.64,21.44 139.12,23.84 L138,23.12 C140.52,19.2 142.4,14.68 143.64,9.56 Z M141.76,22.6 L151.04,22.6 L151.04,23.84 L146.36,23.84 L146.36,30.36 L152.4,30.36 L152.4,31.68 L146.36,31.68 L146.36,42.96 C148.36,42.32 150.44,41.36 152.52,40.12 L152.76,41.44 C150.44,42.8 147.8,43.88 144.8,44.72 L144.2,43.52 C144.72,43.36 145,43.12 145,42.8 L145,31.68 L138.96,31.68 L138.96,30.36 L145,30.36 L145,23.84 L141.76,23.84 L141.76,22.6 Z M195.56,9.32 L194.12,9.6 C194.68,10.68 195.24,11.92 195.72,13.32 L178.48,13.32 L178.48,14.68 L213.48,14.68 L213.48,13.32 L197.12,13.32 C196.64,11.84 196.12,10.52 195.56,9.32 Z M207.2,45.72 L203.76,45.72 L203.44,44.4 L206.76,44.48 C208.68,44.48 209.68,43.64 209.68,42.04 L209.68,29.88 L182.32,29.88 L182.32,45.8 L181,45.8 L181,28.6 L211,28.6 L211,42.32 C211,44.56 209.72,45.72 207.2,45.72 Z M185.48,18.36 L206.56,18.36 L206.56,25.24 L185.48,25.24 L185.48,18.36 Z M205.2,24.04 L205.2,19.56 L186.84,19.56 L186.84,24.04 L205.2,24.04 Z M188.64,33.48 L203.44,33.48 L203.44,40.8 L188.64,40.8 L188.64,33.48 Z M202.12,39.64 L202.12,34.68 L189.92,34.68 L189.92,39.64 L202.12,39.64 Z M224.04,18.4 L225.28,19.04 C223.6,22.72 221.6,25.88 219.32,28.56 L218.24,27.76 C220.48,25.16 222.44,22.04 224.04,18.4 Z M234.6,25.2 C232.44,22.56 230.52,20.52 228.84,19.08 L229.76,18.24 C231.4,19.6 233.32,21.6 235.48,24.24 L234.6,25.2 Z M222.76,28.48 C224.68,30.04 226.48,31.64 228.2,33.32 C229.32,31.24 230.24,28.96 230.96,26.48 L232.16,26.96 C231.36,29.68 230.36,32.12 229.2,34.32 C231.04,36.16 232.76,38.04 234.4,39.96 L233.48,40.96 C231.8,39 230.16,37.2 228.52,35.56 C225.96,39.76 222.64,43 218.56,45.32 L217.76,44.16 C221.8,41.88 225.04,38.68 227.52,34.56 C225.6,32.72 223.72,31 221.84,29.48 L222.76,28.48 Z M226.64,9.16 C227.4,10.64 228.12,12.36 228.76,14.28 L236.48,14.28 L236.48,15.6 L218.36,15.6 L218.36,14.28 L227.4,14.28 C226.76,12.44 226.04,10.84 225.24,9.4 L226.64,9.16 Z M241.32,17.88 C241,19.08 240.64,20.24 240.24,21.32 C241.36,26.12 242.88,30.28 244.76,33.76 C247.2,29.28 248.48,23.96 248.6,17.88 L241.32,17.88 Z M244,35.04 C242.16,31.68 240.64,27.76 239.48,23.32 C238.64,25.32 237.72,27.12 236.68,28.64 L235.8,27.6 C238.68,23.08 240.6,16.96 241.64,9.24 L243,9.48 C242.64,12 242.2,14.36 241.68,16.52 L253.8,16.52 L253.8,17.88 L249.92,17.88 C249.76,24.6 248.28,30.32 245.48,35.04 C247.88,39.16 250.84,42.32 254.32,44.48 L253.52,45.68 C250,43.44 247.08,40.32 244.72,36.32 C242.2,40.12 238.8,43.28 234.56,45.76 L233.76,44.56 C238.16,42.08 241.56,38.92 244,35.04 Z M276.12,37.56 L275.96,37.72 C272.68,41.16 267.32,43.88 259.8,45.88 L259,44.68 C266.44,42.8 271.88,40.12 275.24,36.6 C276.04,35.6 276.76,34.52 277.36,33.4 L259.32,33.4 L259.32,32.04 L278,32.04 C279.12,29.36 279.72,26.32 279.76,22.92 L279.76,18.4 L281.08,18.4 L281.08,22.92 C281.04,26.36 280.48,29.4 279.44,32.04 L292.72,32.04 L292.72,33.4 L278.84,33.4 C278.28,34.52 277.64,35.6 276.92,36.56 C282.84,38.88 288.28,41.64 293.2,44.84 L292.44,46 C287.16,42.44 281.72,39.64 276.12,37.56 Z M264,24.2 C267.04,25.48 269.84,27.08 272.32,28.92 L271.6,30.04 C268.88,28 266.12,26.4 263.28,25.24 L264,24.2 Z M267,18.28 C270.32,19.68 273.36,21.4 276.08,23.44 L275.36,24.56 C272.4,22.32 269.4,20.6 266.28,19.32 L267,18.28 Z M291.52,14.12 L291.52,20.96 L290.16,20.96 L290.16,15.44 L261.76,15.44 L261.76,20.96 L260.4,20.96 L260.4,14.12 L275.84,14.12 C275.2,12.4 274.56,10.88 273.84,9.52 L275.24,9.24 C275.96,10.64 276.6,12.28 277.2,14.12 L291.52,14.12 Z M330.52,11.48 L330.52,33 L329.16,33 L329.16,12.8 L315.32,12.8 L315.32,33 L313.92,33 L313.92,11.48 L330.52,11.48 Z M330.2,45.2 L326,45.2 C324.32,45.2 323.48,44.36 323.48,42.76 L323.48,32.84 L324.84,32.84 L324.84,42.48 C324.84,43.4 325.36,43.88 326.4,43.88 L329.92,43.88 C330.88,43.88 331.52,43.64 331.84,43.2 C332.32,42.56 332.68,40.84 332.84,37.96 L334.12,38.36 C333.92,41.48 333.48,43.48 332.84,44.28 C332.28,44.88 331.4,45.2 330.2,45.2 Z M321.4,16.2 L322.72,16.2 L322.72,26.28 C322.68,31.52 321.68,35.72 319.72,38.84 C317.8,41.72 314.64,44.04 310.24,45.76 L309.44,44.56 C313.76,42.96 316.84,40.72 318.76,37.8 C320.48,34.84 321.36,31 321.4,26.28 L321.4,16.2 Z M298.72,24.84 L303.92,24.84 L303.92,14.04 L298.2,14.04 L298.2,12.72 L310.92,12.72 L310.92,14.04 L305.28,14.04 L305.28,24.84 L310.36,24.84 L310.36,26.2 L305.28,26.2 L305.28,37.12 C307.28,36.48 309.2,35.8 311.04,35.04 L311.04,36.4 C307.16,37.96 302.96,39.24 298.44,40.28 L298.12,38.96 C300.12,38.56 302.04,38.08 303.92,37.52 L303.92,26.2 L298.72,26.2 L298.72,24.84 Z M359.32,31.4 L356.04,31.4 L355.76,30.08 C356.84,30.12 357.88,30.16 358.88,30.16 C359.76,30.16 360.2,29.64 360.2,28.64 L360.2,17.16 L361.56,17.16 L361.56,28.96 C361.56,30.56 360.8,31.4 359.32,31.4 Z M343.6,18.2 C342.12,20.12 340.48,21.92 338.72,23.52 L337.88,22.48 C341.88,18.88 344.92,14.52 347.08,9.4 L348.4,9.76 C347.44,12.12 346.28,14.28 344.96,16.28 L344.96,31.6 L343.6,31.6 L343.6,18.2 Z M356.08,9.36 L357.36,9.72 C356.8,11.04 356.16,12.28 355.52,13.48 L372.08,13.48 L372.08,14.4 C371.6,16.4 370.92,18.36 370.12,20.28 L368.84,19.96 C369.64,18.36 370.24,16.64 370.72,14.8 L354.72,14.8 C353.16,17.28 351.28,19.48 349.08,21.44 L348.24,20.4 C351.64,17.36 354.24,13.68 356.08,9.36 Z M343,34.08 C342.16,37.52 340.92,40.6 339.24,43.24 L340.4,44 C342.08,41.28 343.4,38.08 344.32,34.36 L343,34.08 Z M361.92,45.2 L351.56,45.2 C349.52,45.2 348.52,44.2 348.52,42.28 L348.52,33.32 L349.92,33.32 L349.92,42 C349.92,43.24 350.6,43.88 351.96,43.88 L361.68,43.88 C362.64,43.88 363.32,43.64 363.68,43.16 C364.2,42.52 364.56,40.64 364.72,37.56 L366,38 C365.8,41.32 365.36,43.4 364.68,44.28 C364.12,44.88 363.2,45.2 361.92,45.2 Z M368.2,33.04 L367.08,33.72 C369.6,37.16 371.6,40.28 373.04,43.16 L374.12,42.36 C372.76,39.68 370.76,36.56 368.2,33.04 Z M354.92,21.48 L356.12,22 C354.56,25.12 352.72,27.84 350.64,30.12 L349.6,29.36 C351.68,27.16 353.44,24.52 354.92,21.48 Z M366.92,21.44 L365.68,21.92 C367.6,24.36 369.32,27.16 370.88,30.32 L372.08,29.72 C370.56,26.68 368.84,23.92 366.92,21.44 Z M355.24,32.2 C357.4,34.6 359.08,36.68 360.2,38.44 L359.12,39.24 C357.92,37.32 356.24,35.2 354.16,32.88 L355.24,32.2 Z M391.52,16.92 L391.52,43.36 L390.16,43.36 L390.16,40.72 L381.28,40.72 L381.28,44.48 L379.92,44.48 L379.92,16.92 L383.44,16.92 C384.32,14.6 384.96,12.12 385.36,9.52 L386.72,9.72 C386.28,12.32 385.64,14.72 384.76,16.92 L391.52,16.92 Z M381.28,39.44 L390.16,39.44 L390.16,29.24 L381.28,29.24 L381.28,39.44 Z M381.28,27.96 L390.16,27.96 L390.16,18.28 L381.28,18.28 L381.28,27.96 Z M398.12,25.68 C401.32,29.08 403.8,32.04 405.48,34.6 L404.4,35.4 C402.64,32.68 400.16,29.68 397.04,26.4 L398.12,25.68 Z M412.28,17 C412.28,29.48 412.08,37.2 411.72,40.16 C411.36,43.52 409.56,45.24 406.28,45.24 C405.56,45.24 404.28,45.2 402.52,45.2 L402.16,43.92 C403.72,43.92 405.08,43.96 406.2,43.96 C408.64,43.96 410.04,42.6 410.4,39.96 C410.72,37.32 410.88,30.12 410.96,18.36 L398.32,18.36 C397.2,21.04 395.84,23.44 394.24,25.6 L393.44,24.52 C396.44,20.44 398.48,15.4 399.56,9.48 L400.88,9.64 C400.4,12.28 399.72,14.72 398.88,17 L412.28,17 Z M426.8,24.32 L445.32,24.32 L445.32,31.68 L426.8,31.68 L426.8,24.32 Z M444,30.52 L444,25.48 L428.12,25.48 L428.12,30.52 L444,30.52 Z M449.2,35.32 L449.2,45.84 L447.88,45.84 L447.88,44.04 L424.56,44.04 L424.56,45.84 L423.2,45.84 L423.2,35.32 L449.2,35.32 Z M424.56,42.84 L447.88,42.84 L447.88,36.6 L424.56,36.6 L424.56,42.84 Z M419,12.72 L419,13.96 L428.56,13.96 L428.56,16.84 L429.92,16.84 L429.92,13.96 L442.08,13.96 L442.08,16.84 L443.44,16.84 L443.44,13.96 L453,13.96 L453,12.72 L443.44,12.72 L443.44,9.6 L442.08,9.6 L442.08,12.72 L429.92,12.72 L429.92,9.6 L428.56,9.6 L428.56,12.72 L419,12.72 Z M451.44,19.2 L451.44,25.92 L450.08,25.92 L450.08,20.44 L421.92,20.44 L421.92,26.12 L420.56,26.12 L420.56,19.2 L451.44,19.2 Z M482.92,9.6 L484.24,9.6 L484.24,21.2 L492,21.2 L492,42.84 C492,44.64 491.08,45.56 489.32,45.56 L485.08,45.56 L484.68,44.2 L488.84,44.28 C490,44.28 490.6,43.68 490.6,42.56 L490.6,36.44 L476.48,36.44 L476.48,45.76 L475.12,45.76 L475.12,21.2 L482.92,21.2 L482.92,9.6 Z M476.48,29.48 L476.48,35.16 L490.6,35.16 L490.6,29.48 L476.48,29.48 Z M490.6,28.24 L490.6,22.52 L476.48,22.52 L476.48,28.24 L490.6,28.24 Z M475.28,11.12 C476.64,13.28 477.96,15.6 479.16,18.08 L478.04,18.64 C476.8,16.04 475.48,13.72 474.12,11.72 L475.28,11.12 Z M491.84,10.84 L493.04,11.4 C492,13.88 490.64,16.32 489,18.68 L487.88,18.08 C489.52,15.64 490.84,13.24 491.84,10.84 Z M463.64,9.56 L465,9.84 C464.56,11.48 464.08,13.04 463.56,14.52 L471.8,14.52 L471.8,15.84 L463.12,15.84 C462,18.76 460.64,21.44 459.12,23.84 L458,23.12 C460.52,19.2 462.4,14.68 463.64,9.56 Z M461.76,22.6 L471.04,22.6 L471.04,23.84 L466.36,23.84 L466.36,30.36 L472.4,30.36 L472.4,31.68 L466.36,31.68 L466.36,42.96 C468.36,42.32 470.44,41.36 472.52,40.12 L472.76,41.44 C470.44,42.8 467.8,43.88 464.8,44.72 L464.2,43.52 C464.72,43.36 465,43.12 465,42.8 L465,31.68 L458.96,31.68 L458.96,30.36 L465,30.36 L465,23.84 L461.76,23.84 L461.76,22.6 Z M528.6,12 L528.6,45.76 L527.2,45.76 L527.2,42.8 L504.88,42.8 L504.88,45.84 L503.48,45.84 L503.48,12 L528.6,12 Z M504.88,41.44 L527.2,41.44 L527.2,32.48 L504.88,32.48 L504.88,41.44 Z M504.88,31.2 L527.2,31.2 L527.2,22.72 L504.88,22.72 L504.88,31.2 Z M504.88,21.4 L527.2,21.4 L527.2,13.36 L504.88,13.36 L504.88,21.4 Z M544.4,9.64 L545.72,9.64 L545.72,17.72 L550.92,17.72 L550.92,19.04 L545.72,19.04 L545.72,22.76 C547.76,24.96 549.8,27.44 551.88,30.2 L551.08,31.36 C549,28.4 547.24,26.04 545.72,24.32 L545.72,45.76 L544.4,45.76 L544.4,22.68 C543,27.48 541,31.76 538.36,35.48 L537.72,34.08 C540.96,29.68 543.16,24.64 544.36,19.04 L538.96,19.04 L538.96,17.72 L544.4,17.72 L544.4,9.64 Z M556.16,27.64 L557.44,27.92 C556.08,33.52 554.16,38.36 551.64,42.44 L550.44,41.68 C553,37.6 554.88,32.92 556.16,27.64 Z M569.12,27.56 C570.96,32.12 572.52,37 573.84,42.16 L572.6,42.72 C571.16,37.16 569.56,32.24 567.88,27.96 L569.12,27.56 Z M561,45.4 L556.88,45.4 L556.64,44.08 C558,44.16 559.28,44.2 560.52,44.2 C561.72,44.2 562.36,43.52 562.36,42.24 L562.36,23.6 L552.08,23.6 L552.08,22.24 L574.12,22.24 L574.12,23.6 L563.76,23.6 L563.76,42.56 C563.76,44.44 562.84,45.4 561,45.4 Z M554.2,12.36 L554.2,13.72 L572.04,13.72 L572.04,12.36 L554.2,12.36 Z" id="全民营销高效实现您的营销目标"></path>
                <path d="M8.024,78.968 L8.024,81.416 L11.16,81.416 L11.16,78.968 L8.024,78.968 Z M8.024,82.248 L8.024,84.92 L11.16,84.92 L11.16,82.248 L8.024,82.248 Z M8.024,85.752 L8.024,86.52 L7.176,86.52 L7.176,76.744 C6.744,77.432 6.264,78.104 5.736,78.76 L5.448,77.848 C6.792,76.056 7.736,74.12 8.28,72.008 L9.144,72.168 C8.888,73.096 8.568,73.992 8.184,74.856 L14.936,74.856 L14.936,75.688 L12.008,75.688 L12.008,78.136 L14.616,78.136 L14.616,78.968 L12.008,78.968 L12.008,81.416 L14.616,81.416 L14.616,82.248 L12.008,82.248 L12.008,84.92 L15.112,84.92 L15.112,85.752 L8.024,85.752 Z M11.16,75.688 L8.024,75.688 L8.024,78.136 L11.16,78.136 L11.16,75.688 Z M5.56,78.648 L5.56,79.528 C5.032,79.784 4.488,80.04 3.944,80.264 L3.944,85.08 C3.944,85.88 3.528,86.296 2.696,86.296 L1.208,86.296 L1.016,85.448 C1.496,85.48 1.96,85.512 2.392,85.512 C2.856,85.512 3.096,85.288 3.096,84.872 L3.096,80.6 C2.392,80.856 1.672,81.096 0.936,81.32 L0.712,80.456 C1.512,80.264 2.312,80.024 3.096,79.752 L3.096,75.816 L0.92,75.816 L0.92,74.968 L3.096,74.968 L3.096,71.928 L3.944,71.928 L3.944,74.968 L5.672,74.968 L5.672,75.816 L3.944,75.816 L3.944,79.416 C4.488,79.176 5.032,78.92 5.56,78.648 Z M11.272,71.976 C11.656,72.888 11.944,73.72 12.152,74.488 L11.4,74.76 C11.128,73.896 10.808,73.032 10.424,72.2 L11.272,71.976 Z M24.248,71.704 L23.304,71.864 C23.656,72.44 23.976,73.064 24.264,73.736 L18.248,73.736 L18.248,78.312 C18.2,81.624 17.688,84.2 16.712,86.056 L17.432,86.712 C18.504,84.6 19.064,81.8 19.112,78.312 L19.112,74.584 L31.08,74.584 L31.08,73.736 L25.176,73.736 C24.888,72.984 24.568,72.312 24.248,71.704 Z M33.112,73.96 L32.952,73.144 C34.904,72.952 36.616,72.616 38.104,72.136 L38.408,72.952 C37.736,73.144 37.032,73.336 36.296,73.496 L36.296,76.44 L38.504,76.44 L38.504,77.288 L36.296,77.288 L36.296,78.296 C37.064,78.936 37.848,79.672 38.632,80.472 L38.152,81.176 C37.448,80.28 36.824,79.576 36.296,79.048 L36.296,86.504 L35.432,86.504 L35.432,78.808 C34.824,80.456 33.992,81.944 32.92,83.256 L32.552,82.344 C33.88,80.84 34.808,79.16 35.352,77.288 L32.904,77.288 L32.904,76.44 L35.432,76.44 L35.432,73.656 C34.696,73.768 33.928,73.864 33.112,73.96 Z M44.152,78.04 L44.936,78.392 C44.648,78.872 44.296,79.304 43.912,79.688 L47.24,79.688 L47.24,80.44 C46.248,83.288 43.32,85.304 38.44,86.504 L37.992,85.704 C39.896,85.272 41.48,84.728 42.728,84.056 C42.232,83.544 41.72,83.032 41.192,82.52 L41.816,82.072 C42.376,82.568 42.92,83.096 43.432,83.656 C44.84,82.776 45.8,81.72 46.328,80.488 L42.968,80.488 C41.88,81.256 40.52,81.88 38.856,82.328 L38.328,81.544 C41.144,80.84 43.08,79.672 44.152,78.04 Z M43.176,72.088 C42.92,72.504 42.648,72.904 42.36,73.288 L46.152,73.288 L46.152,74.008 C45.224,76.504 42.84,78.28 39.016,79.336 L38.552,78.696 C39.88,78.344 41.016,77.896 41.976,77.368 C41.496,76.712 41.064,76.232 40.696,75.912 L41.304,75.448 C41.832,75.928 42.264,76.456 42.6,77 C43.816,76.2 44.712,75.208 45.272,74.056 L41.688,74.056 C40.92,74.824 40.072,75.464 39.112,75.992 L38.536,75.304 C40.104,74.488 41.368,73.352 42.328,71.896 L43.176,72.088 Z M49.496,73.192 L49.496,74.008 L55.192,74.008 L55.192,73.192 L49.496,73.192 Z M48.856,77.496 L55.816,77.496 L55.816,78.36 L52.056,78.36 C51.336,81 50.712,82.84 50.184,83.88 C51.608,83.624 53.016,83.224 54.424,82.696 C53.976,81.768 53.544,80.92 53.096,80.152 L53.832,79.8 C54.616,81.176 55.352,82.664 56.056,84.296 L55.288,84.68 C55.096,84.232 54.92,83.8 54.744,83.416 C53.032,84.024 51.176,84.504 49.176,84.872 L48.968,84.056 C49.048,84.024 49.112,84.008 49.144,83.976 C49.656,83.304 50.344,81.432 51.208,78.36 L48.856,78.36 L48.856,77.496 Z M58.392,72.008 L59.256,72.008 L59.256,75.352 L62.776,75.352 C62.776,80.184 62.696,83.192 62.552,84.344 C62.392,85.704 61.656,86.392 60.328,86.392 C60.04,86.392 59.56,86.376 58.888,86.344 L58.68,85.592 C59.288,85.608 59.8,85.624 60.248,85.624 C61.08,85.624 61.576,85.096 61.72,84.072 C61.848,83.176 61.912,80.536 61.944,76.184 L59.256,76.184 L59.256,76.424 C59.208,81.048 58.088,84.424 55.896,86.568 L55.24,85.992 C57.304,84.008 58.36,80.808 58.392,76.424 L58.392,76.184 L56.136,76.184 L56.136,75.352 L58.392,75.352 L58.392,72.008 Z M67.624,84.968 L74.344,84.968 C75.368,82.664 76.264,79.8 77.032,76.376 L77.88,76.616 C77.192,79.768 76.328,82.552 75.272,84.968 L78.84,84.968 L78.84,85.816 L67.624,85.816 L67.624,84.968 Z M69.16,77.144 C69.8,78.872 70.392,80.84 70.904,83.048 L70.088,83.272 C69.64,81.24 69.08,79.288 68.408,77.4 L69.16,77.144 Z M72.264,76.024 C72.84,77.8 73.336,79.832 73.768,82.12 L72.952,82.328 C72.568,80.232 72.088,78.216 71.512,76.28 L72.264,76.024 Z M72.248,71.832 C72.568,72.344 72.872,72.92 73.16,73.56 L79.08,73.56 L79.08,74.408 L67.112,74.408 L67.112,78.152 C67.064,81.656 66.504,84.456 65.432,86.568 L64.712,85.912 C65.688,84.056 66.2,81.464 66.248,78.152 L66.248,73.56 L72.248,73.56 C71.96,72.984 71.656,72.472 71.304,71.992 L72.248,71.832 Z M83.256,77.368 L83.256,80.184 C83.256,80.264 83.24,80.344 83.24,80.44 L87.64,80.44 L87.64,77.368 L83.256,77.368 Z M83.192,81.256 C83.032,83.336 82.424,85.048 81.384,86.392 L80.744,85.8 C81.8,84.344 82.344,82.488 82.376,80.248 L82.376,72.664 L94.056,72.664 L94.056,84.632 C94.056,85.672 93.528,86.2 92.488,86.2 L90.648,86.2 L90.424,85.352 C91.064,85.384 91.656,85.4 92.2,85.4 C92.856,85.4 93.192,85.032 93.192,84.312 L93.192,81.256 L88.504,81.256 L88.504,86.024 L87.64,86.024 L87.64,81.256 L83.192,81.256 Z M93.192,80.44 L93.192,77.368 L88.504,77.368 L88.504,80.44 L93.192,80.44 Z M93.192,76.568 L93.192,73.512 L88.504,73.512 L88.504,76.568 L93.192,76.568 Z M87.64,73.512 L83.256,73.512 L83.256,76.568 L87.64,76.568 L87.64,73.512 Z M109.352,78.968 L109.352,81.416 L112.488,81.416 L112.488,78.968 L109.352,78.968 Z M109.352,82.248 L109.352,84.92 L112.488,84.92 L112.488,82.248 L109.352,82.248 Z M109.352,85.752 L109.352,86.52 L108.504,86.52 L108.504,76.744 C108.072,77.432 107.592,78.104 107.064,78.76 L106.776,77.848 C108.12,76.056 109.064,74.12 109.608,72.008 L110.472,72.168 C110.216,73.096 109.896,73.992 109.512,74.856 L116.264,74.856 L116.264,75.688 L113.336,75.688 L113.336,78.136 L115.944,78.136 L115.944,78.968 L113.336,78.968 L113.336,81.416 L115.944,81.416 L115.944,82.248 L113.336,82.248 L113.336,84.92 L116.44,84.92 L116.44,85.752 L109.352,85.752 Z M112.488,75.688 L109.352,75.688 L109.352,78.136 L112.488,78.136 L112.488,75.688 Z M106.888,78.648 L106.888,79.528 C106.36,79.784 105.816,80.04 105.272,80.264 L105.272,85.08 C105.272,85.88 104.856,86.296 104.024,86.296 L102.536,86.296 L102.344,85.448 C102.824,85.48 103.288,85.512 103.72,85.512 C104.184,85.512 104.424,85.288 104.424,84.872 L104.424,80.6 C103.72,80.856 103,81.096 102.264,81.32 L102.04,80.456 C102.84,80.264 103.64,80.024 104.424,79.752 L104.424,75.816 L102.248,75.816 L102.248,74.968 L104.424,74.968 L104.424,71.928 L105.272,71.928 L105.272,74.968 L107,74.968 L107,75.816 L105.272,75.816 L105.272,79.416 C105.816,79.176 106.36,78.92 106.888,78.648 Z M112.6,71.976 C112.984,72.888 113.272,73.72 113.48,74.488 L112.728,74.76 C112.456,73.896 112.136,73.032 111.752,72.2 L112.6,71.976 Z M125.576,71.704 L124.632,71.864 C124.984,72.44 125.304,73.064 125.592,73.736 L119.576,73.736 L119.576,78.312 C119.528,81.624 119.016,84.2 118.04,86.056 L118.76,86.712 C119.832,84.6 120.392,81.8 120.44,78.312 L120.44,74.584 L132.408,74.584 L132.408,73.736 L126.504,73.736 C126.216,72.984 125.896,72.312 125.576,71.704 Z M134.52,75 L134.52,75.848 L139.992,75.848 C138.808,78.808 136.792,81.224 133.976,83.096 L134.472,83.88 C137.416,81.8 139.496,79.128 140.68,75.848 L140.904,75.848 L140.904,82.344 L137.48,82.344 L137.48,83.192 L140.904,83.192 L140.904,86.568 L141.768,86.568 L141.768,83.192 L145.32,83.192 L145.32,82.344 L141.768,82.344 L141.768,75.848 L141.976,75.848 C143.096,78.76 145.128,81.368 148.04,83.688 L148.616,82.936 C145.768,80.872 143.784,78.504 142.68,75.848 L148.136,75.848 L148.136,75 L141.768,75 L141.768,72.008 L140.904,72.008 L140.904,75 L134.52,75 Z M164.008,75.176 C164.008,78.328 163.928,80.232 163.784,80.904 C163.624,81.56 162.968,81.896 161.832,81.896 L161.72,81.896 L161.464,81.064 C161.672,81.064 161.848,81.08 162.008,81.08 C162.536,81.08 162.872,80.888 163,80.504 C163.096,80.136 163.16,78.744 163.176,76.312 L160.52,77.128 L160.52,83.304 L159.688,83.304 L159.688,77.384 L157.064,78.2 L157.064,84.664 C157.064,85.192 157.336,85.464 157.912,85.464 L162.552,85.464 C162.936,85.464 163.208,85.352 163.368,85.128 C163.576,84.84 163.72,84.008 163.784,82.632 L164.584,82.888 C164.488,84.488 164.296,85.464 163.976,85.832 C163.72,86.12 163.304,86.28 162.728,86.28 L157.656,86.28 C156.68,86.28 156.2,85.8 156.2,84.84 L156.2,78.472 L154.712,78.92 L154.712,78.056 L156.2,77.608 L156.2,73.592 L157.064,73.592 L157.064,77.336 L159.688,76.52 L159.688,71.976 L160.52,71.976 L160.52,76.264 L164.008,75.176 Z M154.936,82.008 L154.936,82.888 C153.464,83.56 151.864,84.12 150.168,84.568 L149.944,83.688 C150.664,83.528 151.368,83.352 152.072,83.128 L152.072,77.176 L150.136,77.176 L150.136,76.312 L152.072,76.312 L152.072,72.104 L152.92,72.104 L152.92,76.312 L154.696,76.312 L154.696,77.176 L152.92,77.176 L152.92,82.84 C153.608,82.6 154.28,82.328 154.936,82.008 Z M169.064,75.912 L173.192,75.912 L173.192,79.928 L168.376,79.928 L168.376,80.776 L173.192,80.776 L173.192,85.144 L166.44,85.144 L166.44,86.008 L180.456,86.008 L180.456,85.144 L174.04,85.144 L174.04,80.776 L179.112,80.776 L179.112,79.928 L174.04,79.928 L174.04,75.912 L179.432,75.912 L179.432,75.08 L174.04,75.08 L174.04,72.088 L173.192,72.088 L173.192,75.08 L169.384,75.08 C169.656,74.296 169.896,73.448 170.088,72.552 L169.208,72.376 C168.664,75.128 167.608,77.32 166.056,78.92 L166.632,79.624 C167.624,78.632 168.424,77.384 169.064,75.912 Z M186.328,76.696 L191,76.696 L191,73.912 C189.752,74.04 188.392,74.104 186.952,74.104 L186.664,73.32 C190.2,73.304 193.096,72.904 195.336,72.12 L195.784,72.856 C194.664,73.272 193.352,73.576 191.88,73.8 L191.88,76.696 L196.6,76.696 L196.6,77.544 L191.88,77.544 L191.88,80.344 L195.528,80.344 L195.528,86.552 L194.664,86.552 L194.664,85.656 L188.264,85.656 L188.264,86.6 L187.4,86.6 L187.4,80.344 L191,80.344 L191,77.544 L186.328,77.544 L186.328,76.696 Z M188.264,84.824 L194.664,84.824 L194.664,81.16 L188.264,81.16 L188.264,84.824 Z M183.288,72.248 L182.696,72.808 C183.832,73.56 184.728,74.28 185.4,74.968 L185.992,74.376 C185.256,73.672 184.36,72.952 183.288,72.248 Z M182.92,76.056 L182.296,76.648 C183.448,77.496 184.376,78.296 185.048,79.064 L185.656,78.456 C184.92,77.656 184.008,76.856 182.92,76.056 Z M185.048,80.28 C184.344,82.232 183.528,84.136 182.584,86.008 L183.432,86.376 C184.312,84.568 185.112,82.648 185.832,80.6 L185.048,80.28 Z M200.12,77.272 L200.12,80.184 L202.968,80.184 L202.968,77.272 L200.12,77.272 Z M202.968,76.488 L202.968,73.544 L200.12,73.544 L200.12,76.488 L202.968,76.488 Z M200.104,81 C200.024,83.272 199.656,85.128 199.016,86.584 L198.344,85.992 C198.984,84.488 199.32,82.6 199.336,80.296 L199.336,72.728 L203.784,72.728 L203.784,85.208 C203.784,86.072 203.368,86.52 202.536,86.52 L201.256,86.52 L201.048,85.752 C201.496,85.768 201.896,85.784 202.28,85.784 C202.728,85.784 202.968,85.496 202.968,84.92 L202.968,81 L200.104,81 Z M206.12,79.416 L206.12,86.568 L205.304,86.568 L205.304,72.728 L211.608,72.728 C211.608,74.616 211.512,75.88 211.32,76.504 C211.144,77.144 210.552,77.464 209.528,77.464 L208.296,77.464 L208.056,76.712 L209.128,76.712 C209.544,76.712 209.848,76.68 210.056,76.616 C210.248,76.552 210.408,76.392 210.52,76.136 C210.648,75.72 210.728,74.856 210.744,73.528 L206.12,73.528 L206.12,78.632 L211.608,78.632 L211.608,79.368 C211.272,81.096 210.712,82.552 209.912,83.736 C210.68,84.504 211.608,85.192 212.664,85.784 L212.248,86.504 C211.128,85.864 210.184,85.16 209.432,84.392 C208.712,85.272 207.848,85.976 206.84,86.52 L206.392,85.832 C207.352,85.288 208.184,84.616 208.856,83.784 C207.768,82.504 207.032,81.048 206.648,79.416 L206.12,79.416 Z M207.4,79.416 C207.752,80.792 208.408,82.04 209.336,83.128 C210.024,82.072 210.52,80.824 210.824,79.416 L207.4,79.416 Z M219,71.912 L219.88,72.04 C219.688,72.504 219.448,72.952 219.192,73.368 L226.28,73.368 L226.28,74.072 C225.208,75.32 223.896,76.36 222.344,77.208 C224.2,78.04 226.296,78.584 228.616,78.84 L228.232,79.656 C225.672,79.352 223.4,78.696 221.4,77.688 C219.416,78.6 217.112,79.256 214.456,79.672 L214.056,78.872 C216.504,78.536 218.648,77.976 220.488,77.192 C219.496,76.6 218.568,75.928 217.704,75.16 C217.08,75.736 216.36,76.28 215.544,76.76 L215.016,76.072 C216.984,74.952 218.312,73.56 219,71.912 Z M221.416,76.76 C222.824,76.04 224.04,75.176 225.048,74.184 L218.6,74.184 C218.488,74.312 218.376,74.44 218.28,74.568 C219.224,75.432 220.264,76.152 221.416,76.76 Z M220.552,78.968 L221.4,78.968 C221.4,79.672 221.336,80.312 221.224,80.92 L226.92,80.92 C226.888,83.544 226.648,85.128 226.184,85.64 C225.72,86.152 224.904,86.424 223.752,86.424 C223.272,86.424 222.68,86.408 221.992,86.376 L221.768,85.576 C222.488,85.608 223.08,85.64 223.56,85.64 C224.616,85.624 225.288,85.416 225.56,85 C225.832,84.568 225.992,83.464 226.056,81.704 L221.032,81.704 C220.872,82.184 220.696,82.616 220.472,83.016 C219.624,84.456 217.752,85.64 214.84,86.568 L214.264,85.88 C216.888,85.096 218.648,84.088 219.544,82.872 C219.768,82.504 219.944,82.12 220.104,81.704 L215.16,81.704 L215.16,80.92 L220.344,80.92 C220.472,80.312 220.552,79.656 220.552,78.968 Z M242.68,78.968 L242.68,81.416 L245.816,81.416 L245.816,78.968 L242.68,78.968 Z M242.68,82.248 L242.68,84.92 L245.816,84.92 L245.816,82.248 L242.68,82.248 Z M242.68,85.752 L242.68,86.52 L241.832,86.52 L241.832,76.744 C241.4,77.432 240.92,78.104 240.392,78.76 L240.104,77.848 C241.448,76.056 242.392,74.12 242.936,72.008 L243.8,72.168 C243.544,73.096 243.224,73.992 242.84,74.856 L249.592,74.856 L249.592,75.688 L246.664,75.688 L246.664,78.136 L249.272,78.136 L249.272,78.968 L246.664,78.968 L246.664,81.416 L249.272,81.416 L249.272,82.248 L246.664,82.248 L246.664,84.92 L249.768,84.92 L249.768,85.752 L242.68,85.752 Z M245.816,75.688 L242.68,75.688 L242.68,78.136 L245.816,78.136 L245.816,75.688 Z M240.216,78.648 L240.216,79.528 C239.688,79.784 239.144,80.04 238.6,80.264 L238.6,85.08 C238.6,85.88 238.184,86.296 237.352,86.296 L235.864,86.296 L235.672,85.448 C236.152,85.48 236.616,85.512 237.048,85.512 C237.512,85.512 237.752,85.288 237.752,84.872 L237.752,80.6 C237.048,80.856 236.328,81.096 235.592,81.32 L235.368,80.456 C236.168,80.264 236.968,80.024 237.752,79.752 L237.752,75.816 L235.576,75.816 L235.576,74.968 L237.752,74.968 L237.752,71.928 L238.6,71.928 L238.6,74.968 L240.328,74.968 L240.328,75.816 L238.6,75.816 L238.6,79.416 C239.144,79.176 239.688,78.92 240.216,78.648 Z M245.928,71.976 C246.312,72.888 246.6,73.72 246.808,74.488 L246.056,74.76 C245.784,73.896 245.464,73.032 245.08,72.2 L245.928,71.976 Z M258.904,71.704 L257.96,71.864 C258.312,72.44 258.632,73.064 258.92,73.736 L252.904,73.736 L252.904,78.312 C252.856,81.624 252.344,84.2 251.368,86.056 L252.088,86.712 C253.16,84.6 253.72,81.8 253.768,78.312 L253.768,74.584 L265.736,74.584 L265.736,73.736 L259.832,73.736 C259.544,72.984 259.224,72.312 258.904,71.704 Z M270.328,72.728 L278.968,72.728 L278.968,77.704 L270.328,77.704 L270.328,72.728 Z M278.088,76.872 L278.088,73.56 L271.208,73.56 L271.208,76.872 L278.088,76.872 Z M273.64,79.592 L273.64,86.312 L272.792,86.312 L272.792,85.464 L269.096,85.464 L269.096,86.312 L268.248,86.312 L268.248,79.592 L273.64,79.592 Z M269.096,84.648 L272.792,84.648 L272.792,80.408 L269.096,80.408 L269.096,84.648 Z M281.08,79.592 L281.08,86.312 L280.216,86.312 L280.216,85.464 L276.36,85.464 L276.36,86.312 L275.512,86.312 L275.512,79.592 L281.08,79.592 Z M276.36,84.648 L280.216,84.648 L280.216,80.408 L276.36,80.408 L276.36,84.648 Z M287.304,72.136 L287.304,76.504 L285.304,76.504 L285.304,72.472 L284.456,72.472 L284.456,78.248 C284.44,81.864 284.008,84.488 283.176,86.12 L283.816,86.696 C284.552,85.32 285.016,83.32 285.208,80.696 L287.48,80.696 L287.48,86.328 L288.328,86.328 L288.328,79.88 L285.256,79.88 C285.288,79.368 285.304,78.824 285.304,78.248 L285.304,77.32 L289.112,77.32 L289.112,76.504 L288.152,76.504 L288.152,72.136 L287.304,72.136 Z M289.992,73.464 L292.456,73.464 C292.712,72.92 292.904,72.376 293.032,71.8 L293.88,71.928 C293.752,72.472 293.56,72.984 293.32,73.464 L297.016,73.464 L297.016,80.008 L293.368,80.008 C293.288,80.184 293.208,80.344 293.144,80.488 C292.648,81.32 291.848,81.976 290.728,82.456 L290.312,81.832 C291.336,81.384 292.056,80.776 292.504,80.008 L289.992,80.008 L289.992,73.464 Z M296.216,79.256 L296.216,77.112 L293.912,77.112 C293.88,77.928 293.784,78.648 293.624,79.256 L296.216,79.256 Z M292.792,79.256 C292.984,78.632 293.08,77.912 293.112,77.112 L290.792,77.112 L290.792,79.256 L292.792,79.256 Z M290.792,76.344 L293.128,76.344 L293.128,74.232 L290.792,74.232 L290.792,76.344 Z M293.928,74.232 L293.928,76.344 L296.216,76.344 L296.216,74.232 L293.928,74.232 Z M289.192,82.568 L294.2,82.568 L294.2,80.76 L295.032,80.76 L295.032,82.568 L297.912,82.568 L297.912,83.384 L295.032,83.384 L295.032,86.504 L294.2,86.504 L294.2,83.384 L289.192,83.384 L289.192,82.568 Z M303.656,76.696 L308.328,76.696 L308.328,73.912 C307.08,74.04 305.72,74.104 304.28,74.104 L303.992,73.32 C307.528,73.304 310.424,72.904 312.664,72.12 L313.112,72.856 C311.992,73.272 310.68,73.576 309.208,73.8 L309.208,76.696 L313.928,76.696 L313.928,77.544 L309.208,77.544 L309.208,80.344 L312.856,80.344 L312.856,86.552 L311.992,86.552 L311.992,85.656 L305.592,85.656 L305.592,86.6 L304.728,86.6 L304.728,80.344 L308.328,80.344 L308.328,77.544 L303.656,77.544 L303.656,76.696 Z M305.592,84.824 L311.992,84.824 L311.992,81.16 L305.592,81.16 L305.592,84.824 Z M300.616,72.248 L300.024,72.808 C301.16,73.56 302.056,74.28 302.728,74.968 L303.32,74.376 C302.584,73.672 301.688,72.952 300.616,72.248 Z M300.248,76.056 L299.624,76.648 C300.776,77.496 301.704,78.296 302.376,79.064 L302.984,78.456 C302.248,77.656 301.336,76.856 300.248,76.056 Z M302.376,80.28 C301.672,82.232 300.856,84.136 299.912,86.008 L300.76,86.376 C301.64,84.568 302.44,82.648 303.16,80.6 L302.376,80.28 Z M316.152,73.192 L316.152,74.008 L321.848,74.008 L321.848,73.192 L316.152,73.192 Z M315.512,77.496 L322.472,77.496 L322.472,78.36 L318.712,78.36 C317.992,81 317.368,82.84 316.84,83.88 C318.264,83.624 319.672,83.224 321.08,82.696 C320.632,81.768 320.2,80.92 319.752,80.152 L320.488,79.8 C321.272,81.176 322.008,82.664 322.712,84.296 L321.944,84.68 C321.752,84.232 321.576,83.8 321.4,83.416 C319.688,84.024 317.832,84.504 315.832,84.872 L315.624,84.056 C315.704,84.024 315.768,84.008 315.8,83.976 C316.312,83.304 317,81.432 317.864,78.36 L315.512,78.36 L315.512,77.496 Z M325.048,72.008 L325.912,72.008 L325.912,75.352 L329.432,75.352 C329.432,80.184 329.352,83.192 329.208,84.344 C329.048,85.704 328.312,86.392 326.984,86.392 C326.696,86.392 326.216,86.376 325.544,86.344 L325.336,85.592 C325.944,85.608 326.456,85.624 326.904,85.624 C327.736,85.624 328.232,85.096 328.376,84.072 C328.504,83.176 328.568,80.536 328.6,76.184 L325.912,76.184 L325.912,76.424 C325.864,81.048 324.744,84.424 322.552,86.568 L321.896,85.992 C323.96,84.008 325.016,80.808 325.048,76.424 L325.048,76.184 L322.792,76.184 L322.792,75.352 L325.048,75.352 L325.048,72.008 Z M331.496,76.328 L331.496,77.16 L333.336,77.16 L333.336,83.144 C332.712,83.352 332.072,83.544 331.416,83.704 L331.64,84.536 C333.272,84.088 334.776,83.496 336.168,82.792 L336.168,81.928 C335.528,82.264 334.856,82.568 334.184,82.84 L334.184,77.16 L335.896,77.16 L335.896,76.328 L334.184,76.328 L334.184,72.04 L333.336,72.04 L333.336,76.328 L331.496,76.328 Z M339.048,71.992 C339.304,72.6 339.56,73.304 339.784,74.072 L342.264,74.072 C342.568,73.368 342.792,72.632 342.92,71.864 L343.768,71.976 C343.608,72.728 343.384,73.432 343.096,74.072 L345.32,74.072 L345.32,79.256 L336.712,79.256 L336.712,74.072 L338.968,74.072 C338.728,73.368 338.472,72.728 338.184,72.152 L339.048,71.992 Z M344.552,78.536 L344.552,74.84 L341.336,74.84 L341.336,78.536 L344.552,78.536 Z M340.632,78.536 L340.632,74.84 L337.48,74.84 L337.48,78.536 L340.632,78.536 Z M338.984,75.592 C339.272,76.2 339.544,76.904 339.784,77.688 L339.192,77.848 C338.968,77.144 338.712,76.456 338.392,75.784 L338.984,75.592 Z M342.952,75.512 L343.576,75.672 C343.352,76.504 343.08,77.256 342.76,77.896 L342.168,77.688 C342.456,77.112 342.728,76.392 342.952,75.512 Z M344.744,80.488 L344.744,86.568 L343.912,86.568 L343.912,85.832 L338.184,85.832 L338.184,86.568 L337.352,86.568 L337.352,80.488 L344.744,80.488 Z M338.184,85.096 L343.912,85.096 L343.912,83.512 L338.184,83.512 L338.184,85.096 Z M338.184,82.808 L343.912,82.808 L343.912,81.208 L338.184,81.208 L338.184,82.808 Z M361.16,74.456 L361.16,86.312 L360.296,86.312 L360.296,85.208 L356.92,85.208 L356.92,86.312 L356.088,86.312 L356.088,74.456 L361.16,74.456 Z M356.92,84.376 L360.296,84.376 L360.296,75.272 L356.92,75.272 L356.92,84.376 Z M350.264,72.008 L350.264,75.336 L347.592,75.336 L347.592,76.2 L350.264,76.2 L350.264,76.232 C350.232,80.728 349.24,83.992 347.304,86.024 L347.96,86.616 C350.024,84.424 351.08,80.968 351.128,76.232 L351.128,76.2 L353.592,76.2 C353.56,80.52 353.496,83.128 353.384,84.024 C353.24,85.08 352.696,85.608 351.768,85.608 C351.384,85.608 350.952,85.592 350.456,85.56 L350.664,86.344 C351.224,86.376 351.624,86.392 351.864,86.392 C353.272,86.392 354.04,85.688 354.2,84.312 C354.36,83.16 354.44,80.168 354.44,75.336 L351.128,75.336 L351.128,72.008 L350.264,72.008 Z M368.44,79.512 L372.248,79.512 L372.248,76.424 L373.128,76.424 L373.128,79.512 L377.016,79.512 L377.016,80.376 L373.128,80.376 L373.128,85.16 L377.768,85.16 L377.768,86.008 L367.736,86.008 L367.736,85.16 L372.248,85.16 L372.248,80.376 L368.44,80.376 L368.44,79.512 Z M365.976,79.768 C365.304,80.488 364.584,81.176 363.816,81.816 L363.256,81.112 C365.368,79.368 367,77.368 368.168,75.096 L363.816,75.096 L363.816,74.248 L368.568,74.248 C368.888,73.48 369.176,72.68 369.432,71.88 L370.312,71.976 C370.088,72.76 369.816,73.512 369.512,74.248 L377.72,74.248 L377.72,75.096 L369.128,75.096 C368.488,76.408 367.736,77.624 366.84,78.744 L366.84,86.6 L365.976,86.6 L365.976,79.768 Z M385.032,83.576 L385.032,84.392 C383.448,85.016 381.656,85.528 379.64,85.912 L379.528,85.064 C381.624,84.68 383.464,84.184 385.032,83.576 Z M382.376,71.88 C381.672,73.896 380.856,75.656 379.896,77.16 C379.784,77.32 379.656,77.432 379.528,77.496 L379.752,78.296 C380.712,78.168 381.672,78.04 382.648,77.896 C381.72,79.512 380.936,80.68 380.264,81.384 C380.152,81.48 380.024,81.56 379.864,81.624 L380.088,82.424 C381.624,82.232 383.208,81.864 384.856,81.336 L384.856,80.552 C383.624,80.968 382.376,81.272 381.128,81.496 C382.104,80.376 383.352,78.376 384.856,75.528 L384.072,75.224 C383.72,75.88 383.4,76.504 383.08,77.112 C382.232,77.24 381.4,77.352 380.568,77.432 C381.448,76.184 382.328,74.44 383.192,72.216 L382.376,71.88 Z M392.776,74.872 L392.904,75.704 L388.696,76.296 C388.728,77.16 388.776,77.96 388.856,78.712 L393.208,78.024 L393.336,78.856 L388.952,79.56 C389,79.944 389.064,80.296 389.128,80.648 C389.288,81.512 389.512,82.28 389.768,82.952 C390.712,82.12 391.544,81.144 392.28,80.024 L392.984,80.472 C392.104,81.768 391.144,82.856 390.104,83.752 C390.2,83.944 390.296,84.136 390.408,84.312 C390.952,85.112 391.464,85.512 391.912,85.512 C392.376,85.512 392.76,84.584 393.08,82.728 L393.832,83.208 C393.416,85.352 392.808,86.44 392.008,86.44 C391.272,86.424 390.552,85.928 389.88,84.968 C389.72,84.744 389.576,84.504 389.448,84.28 C388.232,85.208 386.936,85.88 385.528,86.296 L385.016,85.608 C386.536,85.128 387.896,84.424 389.08,83.512 C388.76,82.792 388.52,81.976 388.328,81.064 C388.232,80.616 388.168,80.152 388.104,79.688 L385.112,80.168 L384.984,79.336 L387.992,78.856 C387.896,78.072 387.848,77.256 387.832,76.424 L385.384,76.776 L385.272,75.96 L387.816,75.592 L387.816,71.96 L388.68,71.96 L388.68,75.464 L392.776,74.872 Z M390.44,71.944 C391.304,72.712 391.976,73.4 392.44,73.976 L391.752,74.456 C391.272,73.816 390.616,73.128 389.784,72.36 L390.44,71.944 Z M405.272,72.008 L406.12,72.008 L406.12,76.536 L409.176,76.536 L409.176,85.144 C409.176,86.008 408.76,86.456 407.944,86.456 L406.296,86.456 L406.056,85.624 L407.656,85.672 C408.088,85.672 408.312,85.432 408.312,84.952 L408.312,82.904 L403.064,82.904 L403.064,86.536 L402.2,86.536 L402.2,76.536 L405.272,76.536 L405.272,72.008 Z M403.064,80.136 L403.064,82.136 L408.312,82.136 L408.312,80.136 L403.064,80.136 Z M408.312,79.368 L408.312,77.368 L403.064,77.368 L403.064,79.368 L408.312,79.368 Z M402.52,72.616 C403.064,73.448 403.56,74.36 404.04,75.336 L403.336,75.688 C402.856,74.68 402.344,73.784 401.8,72.984 L402.52,72.616 Z M408.856,72.488 L409.592,72.84 C409.192,73.832 408.664,74.776 408.024,75.704 L407.32,75.336 C407.96,74.376 408.472,73.432 408.856,72.488 Z M397.576,71.992 L398.408,72.168 C398.248,72.76 398.088,73.32 397.912,73.864 L401.016,73.864 L401.016,74.696 L397.608,74.696 C397.176,75.832 396.664,76.856 396.072,77.784 L395.368,77.336 C396.36,75.768 397.096,73.976 397.576,71.992 Z M396.968,77.096 L400.712,77.096 L400.712,77.88 L398.968,77.88 L398.968,80.168 L401.256,80.168 L401.256,80.984 L398.968,80.984 L398.968,85.096 C399.72,84.84 400.488,84.488 401.272,84.024 L401.432,84.808 C400.456,85.352 399.336,85.816 398.072,86.168 L397.704,85.416 C397.96,85.32 398.104,85.192 398.104,85.016 L398.104,80.984 L395.816,80.984 L395.816,80.168 L398.104,80.168 L398.104,77.88 L396.968,77.88 L396.968,77.096 Z M413.224,78.648 L424.136,78.648 L424.136,82.664 L419.08,82.664 L419.08,83.704 L424.616,83.704 L424.616,84.328 L419.08,84.328 L419.08,85.416 L425.8,85.416 L425.8,86.12 L411.528,86.12 L411.528,85.416 L418.216,85.416 L418.216,84.328 L412.744,84.328 L412.744,83.704 L418.216,83.704 L418.216,82.664 L413.224,82.664 L413.224,78.648 Z M423.32,82.088 L423.32,80.952 L419.08,80.952 L419.08,82.088 L423.32,82.088 Z M418.216,82.088 L418.216,80.952 L414.04,80.952 L414.04,82.088 L418.216,82.088 Z M414.04,80.408 L418.216,80.408 L418.216,79.224 L414.04,79.224 L414.04,80.408 Z M419.08,79.224 L419.08,80.408 L423.32,80.408 L423.32,79.224 L419.08,79.224 Z M413.576,72.248 L423.8,72.248 L423.8,76.12 L413.576,76.12 L413.576,72.248 Z M422.968,75.544 L422.968,74.456 L414.408,74.456 L414.408,75.544 L422.968,75.544 Z M414.408,73.896 L422.968,73.896 L422.968,72.824 L414.408,72.824 L414.408,73.896 Z M411.528,77.064 L411.528,77.736 L425.8,77.736 L425.8,77.064 L411.528,77.064 Z M432.984,73.272 L432.984,74.088 L436.856,74.088 L436.856,75.336 L437.72,75.336 L437.72,74.088 L442.264,74.088 L442.264,75.336 L443.128,75.336 L443.128,74.088 L447,74.088 L447,73.272 L443.128,73.272 L443.128,71.88 L442.264,71.88 L442.264,73.272 L437.72,73.272 L437.72,71.88 L436.856,71.88 L436.856,73.272 L432.984,73.272 Z M437.64,75.8 C437.176,76.44 436.664,77.016 436.104,77.528 C435.592,76.888 434.984,76.328 434.248,75.864 L433.592,76.408 C434.344,76.84 434.968,77.384 435.48,78.056 C434.712,78.664 433.832,79.176 432.808,79.608 L433.256,80.328 C434.28,79.832 435.176,79.304 435.928,78.744 C436.216,79.24 436.44,79.8 436.6,80.424 C435.736,81.448 434.536,82.328 433.016,83.064 L433.512,83.768 C434.792,83.128 435.88,82.312 436.776,81.352 C436.856,81.864 436.904,82.44 436.904,83.048 C436.904,84.168 436.792,84.92 436.6,85.304 C436.408,85.576 436.104,85.72 435.688,85.72 C435.128,85.72 434.6,85.688 434.104,85.656 L434.344,86.456 C434.728,86.472 435.256,86.488 435.896,86.488 C436.456,86.488 436.888,86.312 437.176,85.992 C437.56,85.448 437.752,84.488 437.752,83.112 C437.752,81.176 437.352,79.544 436.568,78.216 C437.176,77.688 437.768,77.032 438.376,76.248 L437.64,75.8 Z M438.712,78.68 L442.104,78.68 C442.136,77.496 442.152,76.568 442.152,75.928 L443.016,75.928 C443.016,76.696 442.984,77.624 442.952,78.68 L446.76,78.68 L446.76,79.512 L443.08,79.512 C443.688,82.248 445.048,84.36 447.144,85.832 L446.568,86.472 C444.616,85.016 443.32,83.112 442.712,80.76 C442.136,83.064 440.872,84.984 438.952,86.552 L438.392,85.912 C440.584,84.104 441.8,81.976 442.056,79.512 L438.712,79.512 L438.712,78.68 Z M444.584,75.576 C445.448,76.36 446.104,77.048 446.552,77.656 L445.912,78.12 C445.432,77.48 444.776,76.76 443.944,75.976 L444.584,75.576 Z M450.968,79.592 C450.36,80.2 449.688,80.76 448.952,81.272 L448.696,80.456 C450.472,79.144 451.752,77.656 452.536,76.024 L453.288,76.376 C452.872,77.192 452.392,77.96 451.816,78.664 L451.816,86.552 L450.968,86.552 L450.968,79.592 Z M452.456,71.944 L453.192,72.296 C452.28,74.04 450.856,75.544 448.936,76.824 L448.664,75.976 C450.424,74.792 451.688,73.448 452.456,71.944 Z M454.504,72.568 L461.896,72.568 L461.896,77.512 L454.504,77.512 L454.504,72.568 Z M461.064,76.776 L461.064,75.368 L455.336,75.368 L455.336,76.776 L461.064,76.776 Z M455.336,74.68 L461.064,74.68 L461.064,73.288 L455.336,73.288 L455.336,74.68 Z M453.72,78.808 L462.92,78.808 L462.92,79.592 L460.872,79.592 L460.872,81.192 L463.256,81.192 L463.256,81.976 L460.872,81.976 L460.872,85.272 C460.872,86.056 460.456,86.456 459.624,86.456 L457.832,86.456 L457.656,85.64 C458.232,85.672 458.792,85.704 459.32,85.704 C459.784,85.704 460.024,85.48 460.024,85.064 L460.024,81.976 L453.176,81.976 L453.176,81.192 L460.024,81.192 L460.024,79.592 L453.72,79.592 L453.72,78.808 Z M455.24,82.616 C456.184,83.512 456.904,84.312 457.416,85 L456.744,85.448 C456.168,84.68 455.464,83.896 454.6,83.08 L455.24,82.616 Z M467.32,80.456 C466.712,82.344 465.992,84.184 465.192,85.976 L465.992,86.328 C466.76,84.6 467.464,82.728 468.072,80.744 L467.32,80.456 Z M465.912,72.216 C466.84,72.952 467.608,73.672 468.248,74.408 L467.624,75.016 C467.048,74.328 466.28,73.592 465.288,72.824 L465.912,72.216 Z M465.512,76.072 L464.888,76.664 C465.944,77.512 466.792,78.312 467.4,79.064 L468.024,78.456 C467.352,77.656 466.504,76.872 465.512,76.072 Z M476.408,76.888 C476.296,77.192 476.184,77.464 476.056,77.72 C475.592,78.536 474.84,79.176 473.816,79.64 L473.368,78.952 C474.328,78.52 475,77.928 475.4,77.192 C475.528,76.904 475.64,76.6 475.736,76.28 L474.04,76.28 L474.04,75.48 L475.896,75.48 C475.96,75.08 475.992,74.664 475.992,74.216 L475.992,73.992 L474.232,73.992 L474.232,73.208 L475.992,73.208 L475.992,71.944 L476.776,71.944 L476.776,73.208 L478.616,73.208 L478.616,73.992 L476.776,73.992 L476.776,74.216 C476.776,74.664 476.744,75.096 476.696,75.48 L478.904,75.48 L478.904,76.28 L476.872,76.28 C477.384,77.368 478.232,78.328 479.432,79.176 L478.92,79.8 C477.8,78.904 476.952,77.944 476.408,76.888 Z M468.904,73.208 L470.744,73.208 L470.744,71.928 L471.544,71.928 L471.544,73.208 L473.192,73.208 L473.192,73.992 L471.544,73.992 L471.544,74.28 C471.544,74.696 471.512,75.096 471.48,75.48 L473.416,75.48 L473.416,76.28 L471.368,76.28 C471.32,76.488 471.272,76.68 471.224,76.872 C471.864,77.336 472.536,77.864 473.208,78.456 L472.776,79.096 C472.072,78.408 471.48,77.88 471.016,77.496 C470.952,77.656 470.872,77.816 470.808,77.976 C470.344,78.824 469.592,79.496 468.552,79.992 L468.104,79.288 C469.064,78.84 469.752,78.216 470.152,77.432 C470.312,77.08 470.44,76.696 470.536,76.28 L468.6,76.28 L468.6,75.48 L470.664,75.48 C470.696,75.096 470.728,74.696 470.744,74.28 L470.744,73.992 L468.904,73.992 L468.904,73.208 Z M477.72,80.008 L477.72,86.568 L476.856,86.568 L476.856,85.816 L471,85.816 L471,86.568 L470.136,86.568 L470.136,80.008 L477.72,80.008 Z M471,85.048 L476.856,85.048 L476.856,83.32 L471,83.32 L471,85.048 Z M471,82.568 L476.856,82.568 L476.856,80.776 L471,80.776 L471,82.568 Z M485.768,79.512 L489.576,79.512 L489.576,76.424 L490.456,76.424 L490.456,79.512 L494.344,79.512 L494.344,80.376 L490.456,80.376 L490.456,85.16 L495.096,85.16 L495.096,86.008 L485.064,86.008 L485.064,85.16 L489.576,85.16 L489.576,80.376 L485.768,80.376 L485.768,79.512 Z M483.304,79.768 C482.632,80.488 481.912,81.176 481.144,81.816 L480.584,81.112 C482.696,79.368 484.328,77.368 485.496,75.096 L481.144,75.096 L481.144,74.248 L485.896,74.248 C486.216,73.48 486.504,72.68 486.76,71.88 L487.64,71.976 C487.416,72.76 487.144,73.512 486.84,74.248 L495.048,74.248 L495.048,75.096 L486.456,75.096 C485.816,76.408 485.064,77.624 484.168,78.744 L484.168,86.6 L483.304,86.6 L483.304,79.768 Z M498.904,77.112 C498.296,77.992 497.608,78.824 496.856,79.592 L496.584,78.744 C498.376,76.76 499.672,74.536 500.456,72.04 L501.24,72.392 C500.84,73.576 500.344,74.696 499.768,75.736 L499.768,86.568 L498.904,86.568 L498.904,77.112 Z M501.096,75.976 L504.488,75.976 C504.504,75.608 504.52,75.24 504.52,74.872 L504.52,72.024 L505.368,72.024 L505.368,74.872 L505.336,75.976 L510.808,75.976 L510.808,76.808 L507.368,76.808 L507.368,84.952 C507.368,85.304 507.544,85.496 507.928,85.496 L509.432,85.496 C509.624,85.496 509.8,85.4 509.928,85.24 C510.088,84.952 510.2,84.04 510.248,82.504 L511.032,82.76 C510.936,84.424 510.776,85.464 510.552,85.848 C510.328,86.136 510.024,86.296 509.64,86.312 L507.688,86.312 C506.92,86.312 506.552,85.912 506.552,85.112 L506.552,76.808 L505.288,76.808 C504.936,81.128 503.592,84.376 501.24,86.52 L500.584,85.96 C502.824,83.944 504.12,80.904 504.44,76.808 L501.096,76.808 L501.096,75.976 Z M507.48,72.36 C508.488,73.064 509.32,73.768 509.992,74.472 L509.4,75.064 C508.792,74.392 507.96,73.672 506.904,72.904 L507.48,72.36 Z M515.48,75.656 L520.936,75.656 C521.016,75.128 521.08,74.6 521.144,74.072 L521.992,74.184 C521.944,74.696 521.88,75.192 521.816,75.656 L527.016,75.656 L527.016,76.488 L521.672,76.488 C521.544,77.096 521.416,77.688 521.272,78.232 L525.448,78.232 L525.448,83.592 L524.6,83.592 L524.6,79.064 L518.024,79.064 L518.024,83.688 L517.176,83.688 L517.176,78.232 L520.376,78.232 C520.536,77.656 520.664,77.08 520.792,76.488 L515.48,76.488 L515.48,75.656 Z M525.864,72.136 L526.28,72.904 C523.032,73.448 519.384,73.768 515.336,73.832 L515.336,78.008 C515.256,81.496 514.568,84.296 513.256,86.376 L512.648,85.736 C513.784,83.88 514.392,81.304 514.488,78.008 L514.488,73.08 C518.68,73.032 522.472,72.712 525.864,72.136 Z M522.168,83.32 C523.944,83.992 525.56,84.824 527.032,85.8 L526.552,86.552 C524.984,85.464 523.368,84.6 521.72,83.976 L522.168,83.32 Z M521.176,79.784 L522.008,79.832 C521.816,81.72 521.24,83.176 520.28,84.184 C519.304,85.176 517.8,85.976 515.784,86.552 L515.336,85.768 C517.256,85.256 518.664,84.552 519.56,83.656 C520.44,82.76 520.984,81.48 521.176,79.784 Z M528.872,77.72 L531.16,77.72 L531.16,72.008 L531.976,72.008 L531.976,77.72 L533.96,77.72 L533.96,78.536 L531.976,78.536 L531.976,79.192 C532.808,80.088 533.656,81.096 534.52,82.248 L534.04,82.984 C533.24,81.704 532.552,80.696 531.976,79.96 L531.976,86.44 L531.16,86.44 L531.16,80.2 C530.632,81.768 529.896,83.16 528.968,84.408 L528.6,83.496 C529.784,82.04 530.632,80.392 531.112,78.536 L528.872,78.536 L528.872,77.72 Z M537.224,78.92 L535.576,78.92 L535.576,78.12 L541.512,78.12 C541.48,81.88 541.416,84.104 541.32,84.776 C541.224,85.416 541.048,85.864 540.776,86.088 C540.52,86.312 539.992,86.424 539.176,86.424 L538.408,86.424 L538.168,85.624 C538.6,85.64 539.016,85.656 539.432,85.656 C539.864,85.656 540.152,85.544 540.296,85.32 C540.424,85.096 540.52,84.696 540.568,84.152 C540.6,83.56 540.632,81.816 540.664,78.92 L538.056,78.92 C537.832,80.84 537.496,82.344 537.064,83.464 C536.552,84.648 535.8,85.704 534.808,86.664 L534.264,85.976 C535.16,85.112 535.832,84.152 536.28,83.112 C536.712,82.04 537.032,80.648 537.224,78.92 Z M537,72.136 L537.8,72.44 C537,75.176 535.944,77.256 534.664,78.696 L534.008,78.12 C535.32,76.648 536.328,74.648 537,72.136 Z M540.28,71.944 C540.872,74.344 541.912,76.296 543.384,77.816 L542.792,78.488 C541.24,76.904 540.152,74.872 539.544,72.376 L540.28,71.944 Z M533.416,73 L534.104,73.08 C534.008,74.408 533.784,75.592 533.416,76.616 L532.792,76.424 C533.112,75.432 533.32,74.28 533.416,73 Z M529.576,73.24 C529.864,74.2 530.12,75.32 530.344,76.568 L529.72,76.744 C529.512,75.592 529.24,74.504 528.904,73.448 L529.576,73.24 Z M544.952,84.984 L544.952,85.816 L559.032,85.816 L559.032,84.984 L544.952,84.984 Z M548.936,72.184 C548.072,74.184 547.032,75.928 545.848,77.432 C545.736,77.592 545.608,77.704 545.48,77.768 L545.688,78.536 C546.808,78.44 547.944,78.312 549.096,78.152 C547.784,80.184 546.6,81.48 545.544,82.04 L545.72,82.856 C547.96,82.696 549.992,82.456 551.784,82.136 L551.624,81.336 C550.216,81.624 548.664,81.848 547,81.992 C548.472,80.584 549.976,78.504 551.48,75.736 L550.68,75.464 C550.312,76.136 549.944,76.76 549.592,77.368 C548.552,77.512 547.544,77.624 546.552,77.688 C547.608,76.44 548.68,74.712 549.768,72.504 L548.936,72.184 Z M555.736,72.168 C554.872,74.184 553.832,75.944 552.648,77.448 C552.536,77.608 552.408,77.704 552.28,77.768 L552.488,78.552 C553.608,78.44 554.76,78.312 555.944,78.152 C554.664,80.168 553.496,81.448 552.456,82.008 L552.616,82.824 C554.92,82.664 556.968,82.44 558.792,82.152 L558.632,81.352 C557.176,81.64 555.592,81.848 553.88,81.976 C555.336,80.584 556.808,78.52 558.28,75.8 L557.464,75.528 C557.112,76.168 556.76,76.792 556.424,77.368 C555.4,77.512 554.376,77.624 553.352,77.704 C554.424,76.456 555.496,74.712 556.568,72.504 L555.736,72.168 Z M564.792,72.024 C565.464,72.888 566.104,73.816 566.68,74.824 L565.912,75.208 C565.304,74.152 564.68,73.224 564.008,72.408 L564.792,72.024 Z M571.112,71.88 L571.96,72.104 C571.544,73.32 571.032,74.424 570.408,75.384 L573.896,75.384 L573.896,76.248 L568.424,76.248 L568.424,77.192 C568.408,78.024 568.344,78.776 568.216,79.48 L574.824,79.48 L574.824,80.344 L568.808,80.344 C569.608,82.648 571.736,84.456 575.192,85.736 L574.696,86.536 C571.08,85.064 568.856,83.048 567.992,80.472 C567.704,81.512 567.272,82.424 566.696,83.192 C565.608,84.584 563.832,85.672 561.368,86.456 L560.888,85.704 C563.32,84.936 565.064,83.88 566.088,82.552 C566.536,81.896 566.872,81.16 567.112,80.344 L561.16,80.344 L561.16,79.48 L567.32,79.48 C567.464,78.76 567.544,77.992 567.56,77.192 L567.56,76.248 L562.072,76.248 L562.072,75.384 L569.432,75.384 C570.072,74.424 570.632,73.256 571.112,71.88 Z M577.976,72.28 L577.368,72.872 C578.552,73.704 579.48,74.504 580.168,75.256 L580.792,74.632 C580.024,73.832 579.096,73.048 577.976,72.28 Z M577.576,76.04 L576.952,76.648 C578.072,77.48 578.968,78.28 579.608,79.032 L580.232,78.408 C579.512,77.624 578.632,76.84 577.576,76.04 Z M579.816,80.392 C579.112,82.344 578.28,84.232 577.32,86.072 L578.168,86.456 C579.064,84.664 579.864,82.744 580.6,80.712 L579.816,80.392 Z M581.528,74.792 L581.528,75.64 L585.816,75.64 L585.816,79.784 L581.976,79.784 L581.976,80.616 L585.816,80.616 L585.816,85.16 L581.112,85.16 L581.112,86.008 L591.24,86.008 L591.24,85.16 L586.664,85.16 L586.664,80.616 L590.488,80.616 L590.488,79.784 L586.664,79.784 L586.664,75.64 L590.92,75.64 L590.92,74.792 L581.528,74.792 Z M585.64,71.88 L584.824,72.12 C585.272,72.92 585.64,73.752 585.928,74.616 L586.696,74.344 C586.44,73.592 586.088,72.776 585.64,71.88 Z" id="推广移动应用-推广本地生活服务-推广品牌"></path>
            </g>
        </g>
    </g>
</svg>